<svg width="91" height="75" viewBox="0 0 91 75" fill="none" xmlns="http://www.w3.org/2000/svg">
<path d="M33.5846 9.6774L33.446 17.2701C35.3642 16.9086 39.7138 15.9143 45.0942 15.9143C50.4745 15.9143 56.3594 19.8236 58.2776 20.1852V14.0161M58.1984 9.6774L58.2776 14.0161M33.5042 14.0839L23.7391 9.94857L45.8569 1L66.8652 9.94857L58.2776 14.0161" stroke="#0167FF"/>
<path d="M84.774 49.9418C84.774 50.5257 85.2537 51.0079 85.8566 51.0079C86.4595 51.0079 86.9392 50.5257 86.9392 49.9418C86.9392 49.3579 86.4595 48.8756 85.8566 48.8756C85.2537 48.8756 84.774 49.3579 84.774 49.9418Z" stroke="#0167FF"/>
<path d="M6.22601 49.9418C6.22601 50.5257 5.74625 51.0079 5.1434 51.0079C4.54055 51.0079 4.06079 50.5257 4.06079 49.9418C4.06079 49.3579 4.54055 48.8756 5.1434 48.8756C5.74625 48.8756 6.22601 49.3579 6.22601 49.9418Z" stroke="#0167FF"/>
<path d="M88.3348 33.1058C88.3348 33.6897 88.8145 34.1719 89.4174 34.1719C90.0202 34.1719 90.5 33.6897 90.5 33.1058C90.5 32.5219 90.0202 32.0397 89.4174 32.0397C88.8145 32.0397 88.3348 32.5219 88.3348 33.1058Z" stroke="#0167FF"/>
<path d="M2.66522 33.1058C2.66522 33.6897 2.18546 34.1719 1.58261 34.1719C0.979756 34.1719 0.5 33.6897 0.5 33.1058C0.5 32.5219 0.979756 32.0397 1.58261 32.0397C2.18546 32.0397 2.66522 32.5219 2.66522 33.1058Z" stroke="#0167FF"/>
<path d="M83.1913 12.746C83.1913 13.3299 83.6711 13.8122 84.274 13.8122C84.8768 13.8122 85.3566 13.3299 85.3566 12.746C85.3566 12.1621 84.8768 11.6799 84.274 11.6799C83.6711 11.6799 83.1913 12.1621 83.1913 12.746Z" stroke="#0167FF"/>
<path d="M7.80865 12.746C7.80865 13.3299 7.32889 13.8122 6.72604 13.8122C6.12319 13.8122 5.64343 13.3299 5.64343 12.746C5.64343 12.1621 6.12319 11.6799 6.72604 11.6799C7.32889 11.6799 7.80865 12.1621 7.80865 12.746Z" stroke="#0167FF"/>
<path d="M77.6522 73.4339C77.6522 74.0178 78.1319 74.5 78.7348 74.5C79.3376 74.5 79.8174 74.0178 79.8174 73.4339C79.8174 72.85 79.3376 72.3677 78.7348 72.3677C78.1319 72.3677 77.6522 72.85 77.6522 73.4339Z" stroke="#0167FF"/>
<path d="M13.348 73.4339C13.348 74.0178 12.8682 74.5 12.2653 74.5C11.6625 74.5 11.1827 74.0178 11.1827 73.4339C11.1827 72.85 11.6625 72.3677 12.2653 72.3677C12.8682 72.3677 13.348 72.85 13.348 73.4339Z" stroke="#0167FF"/>
<path d="M45.6978 58.164H52.0534C53.132 58.164 54.0065 59.0384 54.0065 60.1171V60.1171C54.0065 61.1958 53.132 62.0703 52.0534 62.0703H39.3422C38.2636 62.0703 37.3891 61.1958 37.3891 60.1171V60.1171C37.3891 59.0384 38.2636 58.164 39.3422 58.164H45.6978ZM45.6978 58.164L50.2478 53.6613L45.6978 47.25L41.1478 40.5587L45.6978 36.0561L50.2478 40.5587M45.6978 58.164L41.1478 53.6613M39.236 63.167V67.4845L45.6978 70.3628L52.1596 67.4845V63.167M45.0262 25.9811C41.4131 25.844 34.187 27.7903 34.187 36.6719M57.9326 21.7513L65.0544 16.074L82.8587 13.1375M64.4609 33.4973L77.7152 35.0635L88.2304 33.4973M61.4935 48.1799L71.5826 51.5079L84.4413 50.3333M57.9326 61.2963L68.4174 64.037L77.7152 72.4739M33.0369 21.7513L25.9152 16.074L8.11084 13.1375M26.5087 33.4973L13.2543 35.0635L2.73914 33.4973M29.4761 48.1799L19.3869 51.5079L6.52823 50.3333M33.0369 61.2963L22.5521 64.037L13.2543 72.4739M53.413 57.3809L54.0065 56.8201V56.8201C54.0065 53.6245 55.1258 50.5539 57.0568 48.0077C59.2384 45.131 61.4935 41.7916 61.4935 39.9614C62.2578 33.1083 60.1595 19.4021 45.6515 19.4021C31.1436 19.4021 29.0453 33.1083 29.8096 39.9614C29.8096 41.7942 32.111 45.1406 34.3229 48.0201C36.2696 50.5544 37.3891 53.6245 37.3891 56.8201V56.8201L37.9826 57.3809" stroke="#0167FF"/>
<path d="M41.1478 15.0952L43.5217 9.22217M50.8413 15.0952L48.0717 9.22217M43.5217 9.22217L45.6978 3.74069L48.0717 9.22217M43.5217 9.22217L45.6978 11.1458L48.0717 9.22217" stroke="#0167FF"/>
</svg>
