<svg width="1295" height="540" viewBox="0 0 1295 540" fill="none" xmlns="http://www.w3.org/2000/svg">
<g opacity="0.5">
<path d="M182.516 123.157H504.184V102.872H579.692M182.516 123.157V177.96M182.516 123.157H189.765M182.516 177.96H215.74M182.516 177.96H189.765M579.692 102.872C584.324 87.3291 605.607 56.2443 651.275 56.2443M579.692 102.872H624.092M651.275 56.2443C696.942 56.2443 717.622 87.3291 722.253 102.872M651.275 56.2443V33.2334V5.68097C644.227 2.1486 628.018 -2.79672 619.561 5.68097V21.1224C628.018 12.6448 644.227 17.5901 651.275 21.1224M651.275 56.2443V102.872M651.275 56.2443C622.521 56.2443 603.452 87.3291 597.512 102.872V177.96M651.275 56.2443C638.227 56.2443 627.716 87.3291 624.092 102.872M651.275 56.2443C680.028 56.2443 703.627 87.3291 709.567 102.872M651.275 56.2443C664.323 56.2443 679.364 87.3291 682.988 102.872M215.74 177.96H232.05M215.74 177.96V269.7M215.74 177.96H219.817M232.05 177.96H520.191M232.05 177.96V207.329M232.05 177.96H227.972M387.598 177.96H403.908M387.598 177.96V207.329M387.598 177.96H395.753M403.908 177.96V207.329M403.908 177.96H395.753M492.102 177.96H508.412M492.102 177.96V207.329M492.102 177.96H500.257M508.412 177.96V207.329M508.412 177.96H500.257M508.412 269.7H510.526M508.412 269.7V207.329M508.412 269.7H500.257M508.412 269.7V238.514V207.329M510.526 269.7H519.285C533.582 253.754 582.592 221.862 650.973 221.862C719.353 221.862 761.115 253.754 775.411 269.7H782.66M510.526 269.7V274.393M518.983 447.732V420.179H510.526M518.983 447.732H525.477M518.983 447.732V395.957V390.507M518.983 447.732H481.833M1079.56 269.7V177.96H1075.48M1079.56 269.7H1081.67V274.393M1079.56 269.7H1075.48H1071.41M1079.56 279.086H1081.67V274.393M1079.56 279.086V376.882M1079.56 279.086H1075.48H1071.41M1079.56 376.882H1081.67V416.243M1079.56 376.882H1076.54M1081.67 420.179H1112.48V423.661M1081.67 420.179H1061.14M1081.67 420.179H1056.61M1063.25 269.7H1061.14M1063.25 269.7V207.329M1063.25 269.7H1067.33H1071.41M1061.14 269.7H1052.08C1047.24 256.984 1021.81 229.734 984.117 229.734C946.423 229.734 923.71 256.984 918.878 269.7M1061.14 269.7V274.393M1063.25 279.086H1061.14V274.393M1063.25 279.086V303.005V376.882M1063.25 279.086H1067.33H1071.41M1063.25 376.882H1061.14V416.243M1063.25 376.882H1066.27M907.703 177.96H891.393M907.703 177.96V207.329M907.703 177.96H899.548M907.703 269.7H909.817M907.703 269.7V207.329M907.703 269.7H899.548M909.817 269.7V276.058M909.817 269.7H911.327M909.817 269.7V274.393M907.703 279.086H909.817V276.058M907.703 279.086V281.811M907.703 279.086H891.393M907.703 279.086H899.548M907.703 376.882H909.817V377.488M907.703 376.882V312.089M907.703 376.882V372.038M907.703 376.882H904.682M909.817 420.179H924.919M909.817 420.179H916.311H933.527H942.135M909.817 420.179H889.278M909.817 420.179H914.347M909.817 420.179H884.748V416.243H885.201H889.278M891.393 177.96V207.329M891.393 177.96H899.548M891.393 269.7H889.278M891.393 269.7V207.329M891.393 269.7H899.548M891.393 269.7H889.882H887.768M889.278 269.7V279.086M889.278 269.7H885.352C884.043 260.213 874.116 241.239 847.296 241.239C820.475 241.239 810.246 260.213 808.937 269.7H805.313M889.278 269.7V274.393M889.278 279.086H891.393M889.278 279.086V274.393M891.393 279.086V376.882M891.393 279.086H899.548M891.393 376.882H889.278V416.243M891.393 376.882H894.413M803.198 269.7H805.313M803.198 269.7V207.329M803.198 269.7H795.043M803.198 269.7H806.521H807.125V207.329M805.313 269.7V274.393M803.198 279.086H805.313V274.393M803.198 279.086V376.882M803.198 279.086H795.043M803.198 376.882H805.313V416.243M803.198 376.882H800.178M805.313 420.179H809.39H813.468V427.143M805.313 420.179H809.843V416.243H805.313M805.313 420.179H780.244V416.243H780.697H784.774M786.888 269.7H784.774M786.888 269.7H795.043M786.888 269.7V238.514V207.329M784.774 269.7V274.393M784.774 269.7H782.66M786.888 279.086H784.774V274.393M786.888 279.086V376.882M786.888 279.086H795.043M786.888 376.882H784.774V416.243M786.888 376.882H789.909M784.774 420.179H776.317M918.878 269.7H911.327M918.878 269.7H918.576M776.317 420.179V447.732M776.317 420.179V390.507M776.317 447.732H813.468M776.317 447.732H770.881M813.468 447.732V440.768M813.468 447.732H881.728V440.768M881.728 440.768H813.468M881.728 440.768V434.107M813.468 440.768V434.107M813.468 440.768V433.955M881.728 434.107H813.468M881.728 434.107V427.143M881.728 434.107L813.468 433.955M813.468 434.107V427.143M813.468 434.107V433.955M813.468 427.143V433.955M813.468 427.143H815.28M881.728 427.143V423.661M881.728 427.143H879.311M881.425 447.732H1112.48V423.661M644.63 249.112C586.398 249.112 555.932 273.132 541.938 286.353V291.511M644.63 249.112V447.732M644.63 249.112V438.951V447.732M644.63 447.732H641.307M776.317 273.636L767.105 264.856M776.317 273.636H757.893M776.317 273.636V390.507M767.105 264.856L757.893 273.636M767.105 264.856V390.507M757.893 273.636V390.507M815.28 273.636C818.199 265.461 828.69 249.112 847.296 249.112M815.28 273.636H879.311M815.28 273.636V303.005M847.296 249.112V332.374M847.296 249.112C863.241 249.112 873.226 261.12 877.593 269.7M879.311 273.636V332.374M879.311 273.636C878.894 272.467 878.322 271.132 877.593 269.7M907.703 284.536H1057.51H1058.72M907.703 284.536V281.811M907.703 284.536V289.381M907.703 306.639V303.005V301.794M907.703 306.639V312.089M907.703 306.639H924.919M1045.43 306.639H1057.51V301.794M1045.43 306.639V420.179M1045.43 306.639H924.919M1045.43 306.639H1028.21M1045.43 306.639V312.089M1045.43 420.179H881.728V423.661M1045.43 420.179H1028.21M1045.43 420.179V415.637M1045.43 420.179H1036.82H1019.61H1002.39H985.175H967.959H950.743H942.135M1045.43 420.179H1056.61M786.888 207.329V177.96H795.043M786.888 207.329H782.66M508.412 207.329H520.191M803.198 207.329V177.96H795.043M803.198 207.329H891.393M803.198 207.329H807.125M891.393 207.329H887.768M907.703 207.329H911.327M1063.25 207.329V177.96H1067.33M1063.25 207.329H911.327M520.191 207.329V177.96M520.191 207.329H530.763M520.191 177.96H530.763M530.763 207.329V177.96M530.763 207.329H541.636M530.763 177.96H541.636M541.636 207.329V177.96M541.636 207.329H782.66M541.636 207.329H545.864M541.636 207.329V252.006M541.636 207.329H537.407M541.636 177.96H795.043M552.207 207.329V177.96M562.174 207.329V177.96M572.444 207.329V177.96M583.015 207.329V177.96M592.68 207.329V177.96M602.647 207.329V177.96M612.916 207.329V177.96M623.487 207.329V177.96M633.153 207.329V177.96M643.724 207.329V177.96M654.295 207.329V177.96M665.168 207.329V177.96M675.74 207.329V177.96M686.009 207.329V177.96M696.278 207.329V177.96M706.849 207.329V177.96M717.118 207.329V177.96M727.69 207.329V177.96M727.69 207.329H731.918M727.69 207.329V237.159M727.69 207.329H723.461M738.261 207.329V177.96M748.53 207.329V177.96M759.101 207.329V177.96M768.464 207.329V177.96M777.827 207.329V177.96M814.676 207.329V177.96M825.549 207.329V177.96M836.12 207.329V177.96M846.389 207.329V177.96M857.565 207.329V177.96M868.438 207.329V177.96M879.613 207.329V177.96M995.897 177.96V207.329M919.18 207.329V177.96M930.053 207.329V177.96M940.624 207.329V177.96M950.894 207.329V177.96M962.069 207.329V177.96M962.069 207.329H958.444M962.069 207.329H965.693M962.069 207.329V233.048M972.942 207.329V177.96M972.942 207.329H969.318M972.942 207.329H976.567M972.942 207.329V230.557M984.117 207.329V177.96M1006.77 207.329V177.96M1017.64 207.329V177.96M1028.82 207.329V177.96M1039.99 207.329V177.96M1051.47 207.329V177.96M907.703 312.089H924.919M907.703 312.089V317.539M907.703 312.089H916.311M924.919 312.089V306.639M924.919 312.089H942.135M924.919 306.639H942.135M942.135 312.089V306.639M942.135 312.089H959.351M942.135 306.639H959.351M959.351 312.089V306.639M959.351 312.089H976.567M959.351 306.639H976.567M976.567 312.089V306.639M976.567 312.089H993.783M976.567 306.639H993.783M993.783 312.089V306.639M993.783 312.089H1011M993.783 306.639H1011M1011 312.089V306.639M1011 312.089H1028.21M1011 306.639H1028.21M1028.21 312.089V306.639M1028.21 312.089H1045.43M1045.43 312.089H1036.82M1045.43 312.089V317.539M907.703 317.539H916.311M907.703 317.539V322.988M907.703 317.539H924.919M916.311 317.539V312.089M916.311 317.539H933.527M916.311 312.089H933.527M933.527 317.539V312.089M933.527 317.539H950.743M933.527 312.089H950.743M950.743 317.539V312.089M950.743 317.539H967.959M950.743 312.089H967.959M967.959 317.539V312.089M967.959 317.539H985.175M967.959 312.089H985.175M985.175 317.539V312.089M985.175 317.539H1002.39M985.175 312.089H1002.39M1002.39 317.539V312.089M1002.39 317.539H1019.61M1002.39 312.089H1019.61M1019.61 317.539V312.089M1019.61 317.539H1036.82M1019.61 312.089H1036.82M1036.82 317.539V312.089M1036.82 317.539H1045.43M1045.43 317.539H1028.21M1045.43 317.539V322.988M924.919 322.988V317.539M924.919 322.988H942.135M924.919 322.988H907.703M924.919 317.539H942.135M942.135 322.988V317.539M942.135 322.988H959.351M942.135 322.988H950.743M942.135 322.988H933.527M942.135 317.539H959.351M959.351 322.988V317.539M959.351 322.988H976.567M959.351 317.539H976.567M976.567 322.988V317.539M976.567 322.988H993.783M976.567 317.539H993.783M993.783 322.988V317.539M993.783 322.988H1011M993.783 317.539H1011M1011 322.988V317.539M1011 322.988H1028.21M1011 317.539H1028.21M1028.21 322.988V317.539M1028.21 322.988H1045.43M1045.43 322.988H1036.82M1045.43 322.988V328.438M907.703 322.988V328.438M907.703 322.988H916.311M907.703 328.438H916.311M907.703 328.438V333.888M907.703 328.438H924.919M916.311 328.438V322.988M916.311 328.438H933.527M916.311 322.988H933.527M933.527 328.438V322.988M933.527 328.438H950.743M950.743 328.438V322.988M950.743 328.438H967.959M950.743 322.988H967.959M967.959 328.438V322.988M967.959 328.438H985.175M967.959 322.988H985.175M985.175 328.438V322.988M985.175 328.438H1002.39M985.175 322.988H1002.39M1002.39 328.438V322.988M1002.39 328.438H1019.61M1002.39 322.988H1019.61M1019.61 328.438V322.988M1019.61 328.438H1036.82M1019.61 322.988H1036.82M1036.82 328.438V322.988M1036.82 328.438H1045.43M1045.43 328.438H1028.21M1045.43 328.438V333.888M924.919 333.888V328.438M924.919 333.888H942.135M924.919 333.888H907.703M924.919 328.438H942.135M942.135 333.888V328.438M942.135 333.888H959.351M942.135 333.888H950.743M942.135 333.888H933.527M942.135 328.438H959.351M959.351 333.888V328.438M959.351 333.888H976.567M959.351 328.438H976.567M976.567 333.888V328.438M976.567 333.888H993.783M976.567 328.438H993.783M993.783 333.888V328.438M993.783 333.888H1011M993.783 328.438H1011M1011 333.888V328.438M1011 333.888H1028.21M1011 333.888H1019.61M1011 333.888H1002.39M1011 328.438H1028.21M1028.21 333.888V328.438M1028.21 333.888H1045.43M1045.43 333.888H1036.82M1045.43 333.888V339.338M907.703 333.888V339.338M907.703 333.888H916.311M907.703 339.338H916.311M907.703 339.338V344.788M907.703 339.338H924.919M916.311 339.338V333.888M916.311 339.338H933.527M916.311 333.888H933.527M933.527 339.338V333.888M933.527 339.338H950.743M950.743 339.338V333.888M950.743 339.338H967.959M950.743 333.888H967.959M967.959 339.338V333.888M967.959 339.338H985.175M967.959 333.888H985.175M985.175 339.338V333.888M985.175 339.338H1002.39M985.175 333.888H1002.39M1002.39 339.338V333.888M1002.39 339.338H1019.61M1019.61 339.338V333.888M1019.61 339.338H1036.82M1019.61 333.888H1036.82M1036.82 339.338V333.888M1036.82 339.338H1045.43M1045.43 339.338H1028.21M1045.43 339.338V344.788M924.919 344.788V339.338M924.919 344.788H942.135M924.919 344.788H907.703M924.919 339.338H942.135M942.135 344.788V339.338M942.135 344.788H959.351M942.135 344.788H950.743M942.135 344.788H933.527M942.135 339.338H959.351M959.351 344.788V339.338M959.351 344.788H976.567M959.351 339.338H976.567M976.567 344.788V339.338M976.567 344.788H993.783M976.567 339.338H993.783M993.783 344.788V339.338M993.783 344.788H1011M993.783 339.338H1011M1011 344.788V339.338M1011 344.788H1028.21M1011 339.338H1028.21M1028.21 344.788V339.338M1028.21 344.788H1045.43M1045.43 344.788H1036.82M1045.43 344.788V350.238M907.703 344.788V350.238M907.703 344.788H916.311M907.703 350.238H916.311M907.703 350.238V355.688M907.703 350.238H924.919M916.311 350.238V344.788M916.311 350.238H933.527M916.311 344.788H933.527M933.527 350.238V344.788M933.527 350.238H950.743M950.743 350.238V344.788M950.743 350.238H967.959M950.743 344.788H967.959M967.959 350.238V344.788M967.959 350.238H985.175M967.959 344.788H985.175M985.175 350.238V344.788M985.175 350.238H1002.39M985.175 344.788H1002.39M1002.39 350.238V344.788M1002.39 350.238H1019.61M1002.39 344.788H1019.61M1019.61 350.238V344.788M1019.61 350.238H1036.82M1019.61 344.788H1036.82M1036.82 350.238V344.788M1036.82 350.238H1045.43M1045.43 350.238H1028.21M1045.43 350.238V355.688M924.919 355.688V350.238M924.919 355.688H942.135M924.919 355.688H907.703M924.919 350.238H942.135M942.135 355.688V350.238M942.135 355.688H959.351M942.135 355.688H950.743M942.135 355.688H933.527M942.135 350.238H959.351M959.351 355.688V350.238M959.351 355.688H976.567M959.351 350.238H976.567M976.567 355.688V350.238M976.567 355.688H993.783M976.567 350.238H993.783M993.783 355.688V350.238M993.783 355.688H1011M993.783 350.238H1011M1011 355.688V350.238M1011 355.688H1028.21M1011 355.688H1019.61M1011 355.688H1002.39M1011 350.238H1028.21M1028.21 355.688V350.238M1028.21 355.688H1045.43M1045.43 355.688H1036.82M1045.43 355.688V361.138M907.703 355.688V361.138M907.703 355.688H916.311M907.703 361.138H916.311M907.703 361.138V366.588M907.703 361.138H924.919M916.311 361.138V355.688M916.311 361.138H933.527M916.311 355.688H933.527M933.527 361.138V355.688M933.527 361.138H950.743M950.743 361.138V355.688M950.743 361.138H967.959M950.743 355.688H967.959M967.959 361.138V355.688M967.959 361.138H985.175M967.959 355.688H985.175M985.175 361.138V355.688M985.175 361.138H1002.39M985.175 355.688H1002.39M1002.39 361.138V355.688M1002.39 361.138H1019.61M1019.61 361.138V355.688M1019.61 361.138H1036.82M1019.61 355.688H1036.82M1036.82 361.138V355.688M1036.82 361.138H1045.43M1045.43 361.138H1028.21M1045.43 361.138V366.588M924.919 366.588V361.138M924.919 366.588H942.135M924.919 366.588H907.703M924.919 361.138H942.135M942.135 366.588V361.138M942.135 366.588H959.351M942.135 366.588H950.743M942.135 366.588H933.527M942.135 361.138H959.351M959.351 366.588V361.138M959.351 366.588H976.567M959.351 361.138H976.567M976.567 366.588V361.138M976.567 366.588H993.783M976.567 361.138H993.783M993.783 366.588V361.138M993.783 366.588H1011M993.783 361.138H1011M1011 366.588V361.138M1011 366.588H1028.21M1011 361.138H1028.21M1028.21 366.588V361.138M1028.21 366.588H1045.43M1045.43 366.588H1036.82M1045.43 366.588V372.038M907.703 366.588V372.038M907.703 366.588H916.311M907.703 372.038H916.311M907.703 372.038H924.919M916.311 372.038V366.588M916.311 372.038H933.527M916.311 366.588H933.527M933.527 372.038V366.588M933.527 372.038H950.743M950.743 372.038V366.588M950.743 372.038H967.959M950.743 366.588H967.959M967.959 372.038V366.588M967.959 372.038H985.175M967.959 366.588H985.175M985.175 372.038V366.588M985.175 372.038H1002.39M985.175 366.588H1002.39M1002.39 372.038V366.588M1002.39 372.038H1019.61M1002.39 366.588H1019.61M1019.61 372.038V366.588M1019.61 372.038H1036.82M1019.61 366.588H1036.82M1036.82 372.038V366.588M1036.82 372.038H1045.43M1045.43 372.038H1028.21M1045.43 372.038V377.488M924.919 377.488V372.038M924.919 377.488H942.135M924.919 377.488H909.817M924.919 372.038H942.135M942.135 377.488V372.038M942.135 377.488H959.351M942.135 377.488H950.743M942.135 377.488H933.527M942.135 372.038H959.351M959.351 377.488V372.038M959.351 377.488H976.567M959.351 372.038H976.567M976.567 377.488V372.038M976.567 377.488H993.783M976.567 372.038H993.783M993.783 377.488V372.038M993.783 377.488H1011M993.783 372.038H1011M1011 377.488V372.038M1011 377.488H1028.21M1011 377.488H1019.61M1011 377.488H1002.39M1011 372.038H1028.21M1028.21 377.488V372.038M1028.21 377.488H1045.43M1045.43 377.488H1036.82M1045.43 377.488V382.938M909.817 377.488V382.938M909.817 377.488H916.311M909.817 382.938H916.311M909.817 382.938V388.388M909.817 382.938H924.919M916.311 382.938V377.488M916.311 382.938H933.527M916.311 377.488H933.527M933.527 382.938V377.488M933.527 382.938H950.743M950.743 382.938V377.488M950.743 382.938H967.959M950.743 377.488H967.959M967.959 382.938V377.488M967.959 382.938H985.175M967.959 377.488H985.175M985.175 382.938V377.488M985.175 382.938H1002.39M985.175 377.488H1002.39M1002.39 382.938V377.488M1002.39 382.938H1019.61M1019.61 382.938V377.488M1019.61 382.938H1036.82M1019.61 377.488H1036.82M1036.82 382.938V377.488M1036.82 382.938H1045.43M1045.43 382.938H1028.21M1045.43 382.938V388.388M924.919 388.388V382.938M924.919 388.388H942.135M924.919 388.388H909.817M924.919 382.938H942.135M942.135 388.388V382.938M942.135 388.388H959.351M942.135 388.388H950.743M942.135 388.388H933.527M942.135 382.938H959.351M959.351 388.388V382.938M959.351 388.388H976.567M959.351 382.938H976.567M976.567 388.388V382.938M976.567 388.388H993.783M976.567 382.938H993.783M993.783 388.388V382.938M993.783 388.388H1011M993.783 382.938H1011M1011 388.388V382.938M1011 388.388H1028.21M1011 388.388H1019.61M1011 388.388H1002.39M1011 382.938H1028.21M1028.21 388.388V382.938M1028.21 388.388H1045.43M1045.43 388.388H1036.82M1045.43 388.388V393.838M909.817 388.388H916.311M909.817 388.388V393.838M916.311 388.388H933.527M916.311 388.388V393.838M933.527 388.388V393.838M950.743 388.388H967.959M950.743 388.388V393.838M967.959 388.388H985.175M967.959 388.388V393.838M985.175 388.388H1002.39M985.175 388.388V393.838M1002.39 388.388H1019.61M1002.39 388.388V393.838M1019.61 388.388H1036.82M1019.61 388.388V393.838M1036.82 388.388V393.838M909.817 393.838H916.311M909.817 393.838V399.288M909.817 393.838H924.919M916.311 393.838H933.527M933.527 393.838H950.743M950.743 393.838H967.959M967.959 393.838H985.175M985.175 393.838H1002.39M1002.39 393.838H1019.61M1019.61 393.838H1036.82M1036.82 393.838H1045.43M1045.43 393.838H1028.21M1045.43 393.838V399.288M924.919 399.288V393.838M924.919 399.288H942.135M924.919 399.288H909.817M924.919 393.838H942.135M942.135 399.288V393.838M942.135 399.288H959.351M942.135 399.288H950.743M942.135 399.288H933.527M942.135 393.838H959.351M959.351 399.288V393.838M959.351 399.288H976.567M959.351 393.838H976.567M976.567 399.288V393.838M976.567 399.288H993.783M976.567 393.838H993.783M993.783 399.288V393.838M993.783 399.288H1011M993.783 393.838H1011M1011 399.288V393.838M1011 399.288H1028.21M1011 399.288H1019.61M1011 399.288H1002.39M1011 393.838H1028.21M1028.21 399.288V393.838M1028.21 399.288H1045.43M1045.43 399.288H1036.82M1045.43 399.288V404.738M909.817 399.288H916.311M909.817 399.288V404.738M916.311 399.288H933.527M916.311 399.288V404.738M933.527 399.288V404.738M950.743 399.288H967.959M950.743 399.288V404.738M967.959 399.288H985.175M967.959 399.288V404.738M985.175 399.288H1002.39M985.175 399.288V404.738M1002.39 399.288H1019.61M1002.39 399.288V404.738M1019.61 399.288H1036.82M1019.61 399.288V404.738M1036.82 399.288V404.738M909.817 404.738H916.311M909.817 404.738V410.187M909.817 404.738H924.919M916.311 404.738H933.527M933.527 404.738H950.743M950.743 404.738H967.959M967.959 404.738H985.175M985.175 404.738H1002.39M1002.39 404.738H1019.61M1019.61 404.738H1036.82M1036.82 404.738H1045.43M1045.43 404.738H1028.21M1045.43 404.738V410.187M924.919 410.187V404.738M924.919 410.187H942.135M924.919 410.187H909.817M924.919 404.738H942.135M942.135 410.187V404.738M942.135 410.187H959.351M942.135 410.187H950.743M942.135 410.187H933.527M942.135 404.738H959.351M959.351 410.187V404.738M959.351 410.187H976.567M959.351 404.738H976.567M976.567 410.187V404.738M976.567 410.187H993.783M976.567 404.738H993.783M993.783 410.187V404.738M993.783 410.187H1011M993.783 404.738H1011M1011 410.187V404.738M1011 410.187H1028.21M1011 410.187H1019.61M1011 410.187H1002.39M1011 404.738H1028.21M1028.21 410.187V404.738M1028.21 410.187H1045.43M1045.43 410.187H1036.82M1045.43 410.187V415.637M909.817 410.187H916.311M909.817 410.187V415.637V416.243M916.311 410.187H933.527M916.311 410.187V415.637H933.527M933.527 410.187V415.637M950.743 410.187H967.959M950.743 410.187V415.637M967.959 410.187H985.175M967.959 410.187V415.637M985.175 410.187H1002.39M985.175 410.187V415.637M1002.39 410.187H1019.61M1002.39 410.187V415.637M1019.61 410.187H1036.82M1019.61 410.187V415.637M1036.82 410.187V415.637M933.527 415.637H950.743M950.743 415.637H967.959M967.959 415.637H985.175M985.175 415.637H1002.39M1002.39 415.637H1019.61M1019.61 415.637H1036.82M1036.82 415.637H1045.43M1045.43 415.637H1028.21M924.919 420.179V415.637H942.135M924.919 420.179H942.135M942.135 420.179V415.637M942.135 420.179H959.351M942.135 415.637H959.351M959.351 420.179V415.637M959.351 420.179H976.567M959.351 415.637H976.567M976.567 420.179V415.637M976.567 420.179H993.783M976.567 415.637H993.783M993.783 420.179V415.637M993.783 420.179H1011M993.783 415.637H1011M1011 420.179V415.637M1011 420.179H1028.21M1011 415.637H1028.21M1028.21 420.179V415.637M909.817 276.058H1058.12V279.086H1059.63V281.811M909.817 276.058V274.393M907.703 281.811H1059.63M1059.63 281.811V284.536H1058.72M938.51 279.086H1023.99M907.703 301.794H1057.51M907.703 301.794V295.587V289.381M1057.51 301.794H1058.72V295.587V289.381M1058.72 284.536V289.381M907.703 289.381H1058.72M1061.14 274.393H1081.67M1071.41 279.086V376.58M1071.41 376.882H1067.33H1066.27M1071.41 376.882H1075.48H1076.54M1071.41 376.882V376.58M899.548 269.7V177.96M899.548 177.96H1067.33M899.548 177.96H1071.41M1075.48 177.96H1071.41M1075.48 177.96H1094.96M1067.33 177.96H795.043M1067.33 177.96H1071.41M881.728 423.661H1112.48M911.327 207.329H914.951M911.327 207.329V269.7M911.327 269.7H913.441H914.951M914.951 207.329H918.576M914.951 207.329V269.7M914.951 269.7H917.066H918.576M918.576 207.329H922.2M918.576 207.329V269.7M922.2 207.329H925.825M922.2 207.329V263.217M925.825 207.329H929.449M925.825 207.329V258.071M929.449 207.329H933.074M929.449 207.329V253.81M933.074 207.329H936.698M933.074 207.329V250.139M936.698 207.329H940.322M936.698 207.329V246.924M940.322 207.329H943.947M940.322 207.329V244.088M943.947 207.329H947.571M943.947 207.329V241.583M947.571 207.329H951.196M947.571 207.329V239.373M951.196 207.329H954.82M951.196 207.329V237.433M954.82 207.329H958.444M954.82 207.329V235.742M958.444 207.329V234.285M965.693 207.329H969.318M965.693 207.329V232.02M969.318 207.329V231.193M976.567 207.329H980.191M976.567 207.329V230.106M980.191 207.329H983.815M980.191 207.329V229.834M983.815 207.329H987.44M983.815 207.329V229.735M1023.68 207.329H1020.06M1023.68 207.329H1027.31M1023.68 207.329V240.574M1034.56 207.329H1030.93M1034.56 207.329H1038.18M1034.56 207.329V248.126M987.44 207.329H991.064M987.44 207.329V229.805M991.064 207.329H994.689M991.064 207.329V230.045M994.689 207.329H998.313M994.689 207.329V230.459M998.313 207.329H1001.94M998.313 207.329V231.049M1001.94 207.329H1005.56M1001.94 207.329V231.819M1005.56 207.329H1009.19M1005.56 207.329V232.775M1009.19 207.329H1012.81M1009.19 207.329V233.921M1012.81 207.329H1016.44M1012.81 207.329V235.265M1016.44 207.329H1020.06M1016.44 207.329V236.814M1020.06 207.329V238.58M1027.31 207.329H1030.93M1027.31 207.329V242.814M1030.93 207.329V245.321M1038.18 207.329H1041.81M1038.18 207.329V251.275M1041.81 207.329H1045.43M1041.81 207.329V254.84M1049.06 207.329H1045.43M1049.06 207.329H1052.68M1049.06 207.329V263.924M1045.43 207.329V258.952M1052.68 207.329H1056.3M1052.68 207.329V269.7H1054.79H1056.3M1056.3 207.329H1059.93V269.7H1058.42H1056.3M1056.3 207.329V269.7M889.278 274.393H909.817M899.548 279.086V376.882M899.548 376.882V416.243M899.548 376.882H904.682M899.548 376.882H894.413M1071.41 177.96V269.7M795.043 269.7V177.96M795.043 279.086V376.882M795.043 376.882V416.243M795.043 376.882H789.909M795.043 376.882H800.178M805.313 274.393H784.774M1103.12 123.157H1111.58V177.96H1103.12M1103.12 123.157V177.96M1103.12 123.157H1094.96M1103.12 177.96H1094.96M1094.96 123.157H798.064V102.872H651.275M1094.96 123.157V177.96M1094.96 123.157H1086.81M1094.96 177.96H1086.81M1086.81 123.157V177.96M1086.81 123.157H1078.65M1086.81 177.96H1078.65M1078.65 123.157V177.96M1078.65 123.157H1070.5M1078.65 177.96H1070.5M1070.5 123.157V177.96M1070.5 123.157H1062.34M1070.5 177.96H1062.34M1062.34 123.157V177.96M1062.34 123.157H1054.19M1062.34 177.96H1054.19M1054.19 123.157V177.96M1054.19 123.157H1046.03M1054.19 177.96H1046.03M1046.03 123.157V177.96M1046.03 123.157H1037.88M1046.03 177.96H1037.88M1037.88 123.157V177.96M1037.88 123.157H1029.72M1037.88 177.96H1029.72M1029.72 123.157V177.96M1029.72 123.157H1021.57M1029.72 177.96H1021.57M1021.57 123.157V177.96M1021.57 123.157H1013.41M1021.57 177.96H1013.41M1013.41 123.157V177.96M1013.41 123.157H1005.26M1013.41 177.96H1005.26M1005.26 123.157V177.96M1005.26 123.157H997.105M1005.26 177.96H997.105M997.105 123.157V177.96M997.105 123.157H988.95M997.105 177.96H988.95M988.95 123.157V177.96M988.95 123.157H980.795M988.95 177.96H980.795M980.795 123.157V177.96M980.795 123.157H972.64M980.795 177.96H972.64M972.64 123.157V177.96M972.64 123.157H964.485M972.64 177.96H964.485M964.485 123.157V177.96M964.485 123.157H956.33M964.485 177.96H956.33M956.33 123.157V177.96M956.33 123.157H948.175M956.33 177.96H948.175M948.175 123.157V177.96M948.175 123.157H940.02M948.175 177.96H940.02M940.02 123.157V177.96M940.02 123.157H931.865M940.02 177.96H931.865M931.865 123.157V177.96M931.865 123.157H923.71M931.865 177.96H923.71M923.71 123.157V177.96M923.71 123.157H915.555M923.71 177.96H915.555M915.555 123.157V177.96M915.555 123.157H907.401M915.555 177.96H907.401M907.401 123.157V177.96M907.401 123.157H899.246M907.401 177.96H899.246M899.246 123.157V177.96M899.246 123.157H891.091M899.246 177.96H891.091M891.091 123.157V177.96M891.091 123.157H882.936M891.091 177.96H882.936M882.936 123.157V177.96M882.936 123.157H874.781M882.936 177.96H874.781M874.781 123.157V177.96M874.781 123.157H866.626M874.781 177.96H866.626M866.626 123.157V177.96M866.626 123.157H858.471M866.626 177.96H858.471M858.471 123.157V177.96M858.471 123.157H850.316M858.471 177.96H850.316M850.316 123.157V177.96M850.316 123.157H842.161M850.316 177.96H842.161M842.161 123.157V177.96M842.161 123.157H834.006M842.161 177.96H834.006M834.006 123.157V177.96M834.006 123.157H825.851M834.006 177.96H825.851M825.851 123.157V177.96M825.851 123.157H817.696M825.851 177.96H817.696M817.696 123.157V177.96M817.696 123.157H809.541M817.696 177.96H809.541M809.541 123.157V177.96M809.541 123.157H801.386V177.96M809.541 177.96H801.386M801.386 177.96H793.231M793.231 102.872V177.96M793.231 177.96H785.076M785.076 102.872V177.96M785.076 177.96H776.921M776.921 102.872V177.96M776.921 177.96H768.766M768.766 102.872V177.96M768.766 177.96H760.611M760.611 102.872V177.96M760.611 177.96H752.456M752.456 102.872V177.96M752.456 177.96H744.302M744.302 102.872V177.96M744.302 177.96H736.147M736.147 102.872V177.96M736.147 177.96H727.992M727.992 102.872V177.96M727.992 177.96H719.837M719.837 102.872V177.96M719.837 177.96H711.682M711.682 102.872V177.96M711.682 177.96H703.527M703.527 102.872V177.96M703.527 177.96H695.372M695.372 102.872V177.96M695.372 177.96H687.217M687.217 102.872V177.96M687.217 177.96H679.062M679.062 102.872V177.96M679.062 177.96H670.907M670.907 102.872V177.96M670.907 177.96H662.752M662.752 102.872V117.899M662.752 177.96H654.597M662.752 177.96V141.132M654.597 102.872V113.505M654.597 177.96H646.442M654.597 177.96V145.526M646.442 102.872V113.895M646.442 177.96H638.287M646.442 177.96V145.136M638.287 102.872V119.624M638.287 177.96H630.132M638.287 177.96V139.407M630.132 102.872V177.96M630.132 177.96H621.977M621.977 102.872V177.96M621.977 177.96H613.822M613.822 102.872V177.96M613.822 177.96H605.667M605.667 102.872V177.96M605.667 177.96H597.512M597.512 177.96H589.357M589.357 102.872V177.96M589.357 177.96H581.203M581.203 102.872V177.96M581.203 177.96H573.048M573.048 102.872V177.96M573.048 177.96H564.893M564.893 102.872V177.96M564.893 177.96H556.738M556.738 102.872V177.96M556.738 177.96H548.583M548.583 102.872V177.96M548.583 177.96H540.428M540.428 102.872V177.96M540.428 177.96H532.273M532.273 102.872V177.96M532.273 177.96H524.118M524.118 102.872V177.96M524.118 177.96H515.963M515.963 102.872V177.96M515.963 177.96H507.808M507.808 102.872V177.96M507.808 177.96H499.653M499.653 177.96V123.157H491.498M499.653 177.96H491.498M491.498 123.157V177.96M491.498 123.157H483.343M491.498 177.96H483.343M483.343 123.157V177.96M483.343 123.157H475.188M483.343 177.96H475.188M475.188 123.157V177.96M475.188 123.157H467.033M475.188 177.96H467.033M467.033 123.157V177.96M467.033 123.157H458.878M467.033 177.96H458.878M458.878 123.157V177.96M458.878 123.157H450.723M458.878 177.96H450.723M450.723 123.157V177.96M450.723 123.157H442.568M450.723 177.96H442.568M442.568 123.157V177.96M442.568 123.157H434.413M442.568 177.96H434.413M434.413 123.157V177.96M434.413 123.157H426.258M434.413 177.96H426.258M426.258 123.157V177.96M426.258 123.157H418.104M426.258 177.96H418.104M418.104 123.157V177.96M418.104 123.157H409.949M418.104 177.96H409.949M409.949 123.157V177.96M409.949 123.157H401.794M409.949 177.96H401.794M401.794 123.157V177.96M401.794 123.157H393.639M401.794 177.96H393.639M393.639 123.157V177.96M393.639 123.157H385.484M393.639 177.96H385.484M385.484 123.157V177.96M385.484 123.157H377.329M385.484 177.96H377.329M377.329 123.157V177.96M377.329 123.157H369.174M377.329 177.96H369.174M369.174 123.157V177.96M369.174 123.157H361.019M369.174 177.96H361.019M361.019 123.157V177.96M361.019 123.157H352.864M361.019 177.96H352.864M352.864 123.157V177.96M352.864 123.157H344.709M352.864 177.96H344.709M344.709 123.157V177.96M344.709 123.157H336.554M344.709 177.96H336.554M336.554 123.157V177.96M336.554 123.157H328.399M336.554 177.96H328.399M328.399 123.157V177.96M328.399 123.157H320.244M328.399 177.96H320.244M320.244 123.157V177.96M320.244 123.157H312.089M320.244 177.96H312.089M312.089 123.157V177.96M312.089 123.157H303.934M312.089 177.96H303.934M303.934 123.157V177.96M303.934 123.157H295.779M303.934 177.96H295.779M295.779 123.157V177.96M295.779 123.157H287.624M295.779 177.96H287.624M287.624 123.157V177.96M287.624 123.157H279.469M287.624 177.96H279.469M279.469 123.157V177.96M279.469 123.157H271.314M279.469 177.96H271.314M271.314 123.157V177.96M271.314 123.157H263.16M271.314 177.96H263.16M263.16 123.157V177.96M263.16 123.157H255.005M263.16 177.96H255.005M255.005 123.157V177.96M255.005 123.157H246.85M255.005 177.96H246.85M246.85 123.157V177.96M246.85 123.157H238.695M246.85 177.96H238.695M238.695 123.157V177.96M238.695 123.157H230.54M238.695 177.96H230.54M230.54 123.157V177.96M230.54 123.157H222.385M230.54 177.96H222.385M222.385 123.157V177.96M222.385 123.157H214.23M222.385 177.96H214.23M214.23 123.157V177.96M214.23 123.157H206.075M214.23 177.96H206.075M206.075 123.157V177.96M206.075 123.157H197.92M206.075 177.96H197.92M197.92 123.157V177.96M197.92 123.157H189.765M197.92 177.96H189.765M189.765 123.157V177.96M887.768 269.7V207.329M887.768 269.7H886.258M887.768 207.329H884.144M884.144 264.86V207.329M884.144 207.329H880.519M880.519 257.569V207.329M880.519 207.329H876.895M876.895 252.947V207.329M876.895 207.329H873.271M873.271 249.573V207.329M873.271 207.329H869.646M869.646 247.018V207.329M869.646 207.329H866.022M866.022 245.072V207.329M866.022 207.329H862.397M862.397 243.609V207.329M862.397 207.329H858.773M858.773 242.547V207.329M858.773 207.329H855.148M855.148 241.827V207.329M855.148 207.329H851.524M851.524 241.403V207.329M851.524 207.329H847.9M847.9 241.243V207.329M847.9 207.329H844.275M844.275 241.322V207.329M844.275 207.329H840.651M840.651 241.654V207.329M840.651 207.329H837.026M837.026 242.268V207.329M837.026 207.329H833.402M833.402 243.205V207.329M833.402 207.329H829.777M829.777 244.515V207.329M829.777 207.329H826.153M826.153 246.267V207.329M826.153 207.329H822.529M822.529 248.565V207.329M822.529 207.329H818.602M818.602 251.861V207.329M818.602 207.329H814.978M814.978 255.981V207.329M814.978 207.329H811.051M811.051 262.645V207.329M811.051 207.329H807.125M782.66 207.329V269.7M782.66 207.329H778.431M782.66 269.7H780.546H778.431M778.431 207.329V269.7M778.431 207.329H774.203M778.431 269.7H776.317M774.203 207.329V268.385M774.203 207.329H769.975M769.975 207.329V264.181M769.975 207.329H765.746M765.746 207.329V260.423M765.746 207.329H761.518M761.518 207.329V256.996M761.518 207.329H757.289M757.289 207.329V253.84M757.289 207.329H753.061M753.061 207.329V250.916M753.061 207.329H748.832M748.832 207.329V248.199M748.832 207.329H744.604M744.604 207.329V245.669M744.604 207.329H740.375M740.375 207.329V243.311M740.375 207.329H736.147M736.147 207.329V241.113M736.147 207.329H731.918M731.918 207.329V239.065M723.461 207.329V235.387M723.461 207.329H719.233M719.233 207.329V233.744M719.233 207.329H715.004M715.004 207.329V232.225M715.004 207.329H710.776M710.776 207.329V230.824M710.776 207.329H706.547M702.319 207.329H706.547M702.319 207.329V228.362M702.319 207.329H698.09M706.547 207.329V229.538M698.09 207.329V227.293M698.09 207.329H693.862M693.862 207.329V226.328M693.862 207.329H689.633M689.633 207.329V225.465M689.633 207.329H685.405M685.405 207.329V224.7M685.405 207.329H681.176M676.948 207.329H681.176M676.948 207.329V223.455M676.948 207.329H672.719M681.176 207.329V224.03M672.719 207.329V222.971M672.719 207.329H668.491M668.491 207.329V222.577M668.491 207.329H664.262M664.262 207.329V222.271M664.262 207.329H660.034M660.034 207.329V222.051M660.034 207.329H655.805M605.063 207.329H609.292M605.063 207.329V226.762M605.063 207.329H600.835M655.805 207.329V221.915M655.805 207.329H651.577M651.577 207.329V221.863M651.577 207.329H647.348M647.348 207.329V221.892M647.348 207.329H643.12M643.12 207.329V222.002M643.12 207.329H638.891M638.891 207.329V222.195M638.891 207.329H634.663M634.663 207.329V222.47M634.663 207.329H630.434M630.434 207.329V222.829M630.434 207.329H626.206M626.206 207.329V223.27M626.206 207.329H621.977M621.977 207.329V223.797M621.977 207.329H617.749M617.749 207.329V224.408M617.749 207.329H613.52M613.52 207.329V225.105M613.52 207.329H609.292M609.292 207.329V225.89M600.835 207.329V227.724M600.835 207.329H596.606M596.606 207.329V228.777M596.606 207.329H592.378M592.378 207.329V229.922M592.378 207.329H588.149M588.149 207.329V231.162M588.149 207.329H583.921M579.692 207.329H583.921M579.692 207.329V233.933M579.692 207.329H575.464M583.921 207.329V232.498M524.722 207.329H528.95M524.722 207.329V264.378M524.722 207.329H520.493M575.464 207.329V235.47M575.464 207.329H571.235M571.235 207.329V237.112M571.235 207.329H567.007M567.007 207.329V238.863M567.007 207.329H562.778M562.778 207.329V240.728M562.778 207.329H558.55M558.55 207.329V242.712M558.55 207.329H554.321M554.321 207.329V244.822M554.321 207.329H550.093M550.093 207.329V247.067M550.093 207.329H545.864M545.864 207.329V249.457M537.407 207.329V254.735M537.407 207.329H533.179M533.179 207.329V257.671M533.179 207.329H528.95M528.95 207.329V260.859M520.493 207.329V268.401M520.493 207.329H516.265M516.265 207.329V269.7M516.265 207.329H512.036V269.7H514.151H516.265M518.379 269.7H516.265M776.317 390.507H770.881M757.893 390.507H764.387M757.893 390.507V395.957V447.732H764.387M770.881 447.732H764.387M770.881 447.732V390.507M764.387 447.732V390.507M764.387 390.507H770.881M653.993 395.957H657.315H663.658H680.874M653.993 395.957V399.893M653.993 395.957V350.238M680.874 395.957H688.123M680.874 395.957H673.625M680.874 395.957V399.893M680.874 447.732H663.658H659.128M680.874 447.732H688.123M680.874 447.732H673.625M680.874 447.732V399.893M680.874 447.732H717.118M688.123 395.957H695.372M688.123 395.957V341.155V318.447V257.121M688.123 395.957V399.893M688.123 447.732H695.372M688.123 447.732V438.951M695.372 395.957H702.621M695.372 395.957V399.893M695.372 447.732H702.621M695.372 447.732V438.951M702.621 395.957H709.87M702.621 395.957V346.908M702.621 395.957V399.893M702.621 447.732H709.87M702.621 447.732V399.893M709.87 395.957H717.118M709.87 395.957V399.893M709.87 447.732H717.118M709.87 447.732V438.951M717.118 395.957H724.367M717.118 395.957V341.155V318.447V287.726V267.116M717.118 395.957V399.893M717.118 447.732H724.367M717.118 447.732H753.363M717.118 447.732V438.951M724.367 395.957H731.616M724.367 395.957V399.893M724.367 447.732H731.616M724.367 447.732V399.893M731.616 395.957H738.865M731.616 395.957V303.611C729.905 298.464 721.709 287.726 702.621 287.726C683.532 287.726 675.337 298.464 673.625 303.611V395.957M731.616 395.957V399.893M731.616 447.732H738.865M731.616 447.732V438.951M738.865 395.957H746.114M738.865 395.957V279.806M738.865 395.957V399.893M738.865 447.732H746.114M738.865 447.732V438.951M746.114 395.957V447.732M746.114 395.957H753.363M746.114 447.732H753.363M753.363 395.957H750.644M753.363 395.957V291.511M753.363 395.957V399.893M753.363 447.732H750.644M753.363 447.732V438.951M653.993 447.732H650.671V438.951V249.112C706.534 249.112 738.295 272.958 753.363 286.656V291.511M653.993 447.732H657.315H659.128M653.993 447.732V438.951M753.363 291.511C749.615 288.114 744.816 284.029 738.865 279.806M673.625 395.957H666.376M673.625 395.957V399.893M673.625 447.732H666.376V438.951M673.625 447.732V438.951M666.376 395.957H659.128V399.893M666.376 395.957V253.649M666.376 395.957V399.893M653.993 399.893H659.128M653.993 399.893V415.789M753.363 399.893H746.114H738.865M753.363 399.893V415.789M753.363 438.951H738.865M753.363 438.951V415.789M702.621 261.262V283.022V317.841M702.621 261.262C707.82 263.039 712.647 265.018 717.118 267.116M702.621 261.262C698.076 259.709 693.247 258.31 688.123 257.121M717.118 267.116C725.621 271.107 732.835 275.527 738.865 279.806M666.376 253.649C671.432 254.111 676.262 254.78 680.874 255.621C683.353 256.073 685.769 256.575 688.123 257.121M666.376 253.649C662.39 253.285 658.263 253.049 653.993 252.959V313.905M653.993 350.238H753.665M653.993 350.238V313.905M753.665 313.905H653.993M702.621 317.841C710.628 317.841 717.118 324.348 717.118 332.374C717.118 340.401 710.628 346.908 702.621 346.908M702.621 317.841C694.614 317.841 688.123 324.348 688.123 332.374C688.123 340.401 694.614 346.908 702.621 346.908M638.287 119.624C636.202 122.371 634.965 125.798 634.965 129.516C634.965 133.233 636.202 136.661 638.287 139.407M638.287 119.624C640.32 116.945 643.16 114.915 646.442 113.895M646.442 113.895C647.969 113.421 649.592 113.166 651.275 113.166C652.413 113.166 653.524 113.283 654.597 113.505M654.597 113.505C657.741 114.158 660.555 115.717 662.752 117.899M662.752 117.899C665.736 120.862 667.585 124.973 667.585 129.516C667.585 134.059 665.736 138.169 662.752 141.132M638.287 139.407C640.32 142.086 643.16 144.116 646.442 145.136M646.442 145.136C647.969 145.61 649.592 145.865 651.275 145.865C652.413 145.865 653.524 145.749 654.597 145.526M654.597 145.526C657.741 144.874 660.555 143.314 662.752 141.132M659.128 399.893H670.001M659.128 399.893V447.732M666.376 399.893H673.625M666.376 399.893H670.001M673.625 399.893H680.874M680.874 399.893H688.123M688.123 399.893H695.372M695.372 399.893H702.621M702.621 399.893H709.87M709.87 399.893H717.118M717.118 399.893H724.367M724.367 399.893H731.616M731.616 399.893H738.865M666.376 438.951H662.752H673.625M666.376 438.951V423.51V408.068C666.578 406.857 667.585 404.616 670.001 404.132M666.376 438.951H653.993M673.625 438.951V423.51V415.789V408.068C673.424 406.857 672.417 404.616 670.001 404.132M673.625 438.951H688.123M670.001 404.132V399.893M688.123 438.951H695.372M688.123 438.951V423.51V408.068C688.324 406.857 689.331 404.616 691.747 404.132M695.372 438.951H702.017H709.87M695.372 438.951V423.51V415.789V408.068C695.17 406.857 694.164 404.616 691.747 404.132M709.87 438.951H717.118M709.87 438.951V423.51V408.068C710.071 406.857 711.078 404.616 713.494 404.132M717.118 438.951H731.616M717.118 438.951V423.51V415.789V408.068C716.917 406.857 715.91 404.616 713.494 404.132M731.616 438.951H738.865M731.616 438.951V423.51V408.068C731.817 406.857 732.824 404.616 735.24 404.132M738.865 438.951V423.51V415.789V408.068C738.664 406.857 737.657 404.616 735.24 404.132M691.747 404.132V399.893M713.494 404.132V399.893M735.24 404.132V399.893M653.993 415.789H753.363M653.993 415.789V438.951M1056.61 420.179V416.243H1061.14M1086.21 420.179V416.243H1081.67M1081.67 416.243H1076.54M1061.14 416.243H1066.27M940.624 420.179H914.347M914.347 420.179V416.243H909.817M909.817 416.243H904.682M889.278 416.243H894.413M899.548 416.243H904.682M899.548 416.243H894.413M904.682 416.243V376.882M894.413 416.243V376.882M1071.41 416.243V376.58M1071.41 416.243H1076.54M1071.41 416.243H1066.27M1076.54 416.243V376.882M1066.27 416.243V376.882M805.313 416.243H800.178M784.774 416.243H789.909M795.043 416.243H800.178M795.043 416.243H789.909M800.178 416.243V376.882M789.909 416.243V376.882M815.28 427.143V420.179M815.28 427.143H823.284M879.311 427.143V346.908M879.311 427.143H871.307M815.28 332.374V303.005M815.28 332.374V346.908M815.28 332.374H823.284M879.311 332.374V346.908M879.311 332.374H871.307M847.296 332.374V427.143M847.296 332.374H839.292M847.296 332.374H855.299M847.296 427.143H839.292M847.296 427.143H863.303M831.288 332.374V291.511C832.596 288.378 837.63 282.053 847.296 281.811C856.961 282.053 861.995 288.378 863.303 291.511V332.374M831.288 332.374H823.284M831.288 332.374H839.292M863.303 332.374H871.307M863.303 332.374H855.299M815.28 303.005H880.519M877.593 269.7H855.299M817.394 269.7H855.299M879.613 420.179H831.288M815.28 420.179V355.688M815.28 420.179H831.288M815.28 355.688H879.613M815.28 355.688V346.908M815.28 346.908H831.288M879.311 346.908H863.303M823.284 332.374V427.143M823.284 427.143H831.288M839.292 332.374V427.143M839.292 332.374V250.02M839.292 427.143H831.288M863.303 427.143H871.307M863.303 427.143V420.179M871.307 332.374V427.143M855.299 332.374V427.143M855.299 332.374V269.7M831.288 364.469C833.704 364.953 834.711 367.194 834.912 368.405V388.236V395.957V411.399V420.179H831.288M831.288 364.469C828.871 364.953 827.865 367.194 827.663 368.405V395.957V411.399V420.179H831.288M831.288 364.469V346.908M831.288 420.179V427.143M831.288 346.908H863.303M863.303 364.469C865.72 364.953 866.726 367.194 866.928 368.405V388.236V395.957V411.399V420.179H863.303M863.303 364.469C860.887 364.953 859.88 367.194 859.679 368.405V395.957V411.399V420.179H863.303M863.303 364.469V346.908M855.299 269.7V250.02M641.307 395.957H637.985H631.642H614.426M641.307 395.957V399.893M641.307 395.957V350.238M614.426 395.957H607.178M614.426 395.957H621.675M614.426 395.957V399.893M614.426 447.732H631.642H636.173M614.426 447.732H607.178M614.426 447.732H621.675M614.426 447.732V399.893M614.426 447.732H578.182M607.178 395.957H599.929M607.178 395.957V341.155V318.447V257.121M607.178 395.957V399.893M607.178 447.732H599.929M607.178 447.732V438.951M599.929 395.957H592.68M599.929 395.957V399.893M599.929 447.732H592.68M599.929 447.732V438.951M592.68 395.957H585.431M592.68 395.957V346.908M592.68 395.957V399.893M592.68 447.732H585.431M592.68 447.732V399.893M585.431 395.957H578.182M585.431 395.957V399.893M585.431 447.732H578.182M585.431 447.732V438.951M578.182 395.957H570.933M578.182 395.957V341.155V318.447V287.726V267.116M578.182 395.957V399.893M578.182 447.732H570.933M578.182 447.732V438.951M570.933 395.957H563.684M570.933 395.957V399.893M570.933 447.732H563.684M570.933 447.732V399.893M563.684 395.957H556.436M563.684 395.957V303.611C565.396 298.464 573.591 287.726 592.68 287.726C611.768 287.726 619.964 298.464 621.675 303.611V395.957M563.684 395.957V399.893M563.684 447.732H556.436M563.684 447.732V438.951M556.436 395.957V279.806M556.436 395.957V399.893M556.436 395.957H549.187M556.436 447.732V438.951M556.436 447.732H549.187M549.187 395.957V447.732M549.187 395.957H541.938M549.187 447.732H541.938M541.938 395.957H544.656M541.938 395.957V399.893M541.938 395.957V350.238M541.938 447.732H544.656M541.938 447.732V438.951M641.307 447.732H637.985H636.173M641.307 447.732V438.951M541.938 291.511C545.685 288.114 550.484 284.029 556.436 279.806M541.938 291.511V313.905M621.675 395.957H628.924M621.675 395.957V399.893M621.675 447.732H628.924V438.951M621.675 447.732V438.951M628.924 395.957H636.173V399.893M628.924 395.957V253.649M628.924 395.957V399.893M641.307 399.893H636.173M641.307 399.893V415.789M541.938 399.893H549.187H556.436M541.938 399.893V415.789V438.951M541.938 438.951H556.436M592.68 261.262V283.022V317.841M592.68 261.262C587.481 263.039 582.653 265.018 578.182 267.116M592.68 261.262C597.225 259.709 602.054 258.31 607.178 257.121M578.182 267.116C569.679 271.107 562.466 275.527 556.436 279.806M628.924 253.649C623.869 254.111 619.038 254.78 614.426 255.621C611.947 256.073 609.531 256.575 607.178 257.121M628.924 253.649C632.911 253.285 637.038 253.049 641.307 252.959V313.905M641.307 350.238V313.905M641.307 350.238H541.938M641.307 313.905H541.938M592.68 317.841C584.673 317.841 578.182 324.348 578.182 332.374C578.182 340.401 584.673 346.908 592.68 346.908M592.68 317.841C600.687 317.841 607.178 324.348 607.178 332.374C607.178 340.401 600.687 346.908 592.68 346.908M636.173 399.893H625.3M636.173 399.893V447.732M628.924 399.893H621.675M628.924 399.893H625.3M621.675 399.893H614.426M614.426 399.893H607.178M607.178 399.893H599.929M599.929 399.893H592.68M592.68 399.893H585.431M585.431 399.893H578.182M578.182 399.893H570.933M570.933 399.893H563.684M563.684 399.893H556.436M628.924 438.951H632.548H621.675M628.924 438.951V423.51V408.068C628.723 406.857 627.716 404.616 625.3 404.132M628.924 438.951H641.307M621.675 438.951V423.51V415.789V408.068C621.877 406.857 622.883 404.616 625.3 404.132M621.675 438.951H607.178M625.3 404.132V399.893M607.178 438.951H599.929M607.178 438.951V423.51V408.068C606.976 406.857 605.969 404.616 603.553 404.132M599.929 438.951H593.284H585.431M599.929 438.951V423.51V415.789V408.068C600.13 406.857 601.137 404.616 603.553 404.132M585.431 438.951H578.182M585.431 438.951V423.51V408.068C585.23 406.857 584.223 404.616 581.807 404.132M578.182 438.951H563.684M578.182 438.951V423.51V415.789V408.068C578.384 406.857 579.39 404.616 581.807 404.132M563.684 438.951H556.436M563.684 438.951V423.51V408.068C563.483 406.857 562.476 404.616 560.06 404.132M556.436 438.951V423.51V415.789V408.068C556.637 406.857 557.644 404.616 560.06 404.132M603.553 404.132V399.893M581.807 404.132V399.893M560.06 404.132V399.893M641.307 415.789V438.951M641.307 415.789H541.636M537.407 273.636L528.195 264.856M537.407 273.636H528.195M537.407 273.636V390.507M528.195 264.856L518.983 273.636M528.195 264.856V273.636M518.983 273.636H528.195M518.983 273.636V390.507M528.195 273.636V390.507M528.195 390.507H525.477M528.195 390.507H531.971M537.407 390.507V420.179V447.732H531.971M537.407 390.507H531.971M518.983 390.507H525.477M531.971 447.732H525.477M531.971 447.732V390.507M525.477 447.732V390.507M541.938 313.905V350.238M183.724 177.96H192.181H200.336M215.74 269.7H213.626V274.393M215.74 269.7H219.817H223.895M215.74 279.086H213.626V274.393M215.74 279.086V376.882M215.74 279.086H219.817H223.895M215.74 376.882H213.626V416.243M215.74 376.882H218.76M213.626 420.179H182.818V423.661M213.626 420.179H234.164M213.626 420.179H238.695M232.05 269.7H234.164M232.05 269.7V207.329M232.05 269.7H227.972H223.895M234.164 269.7H243.225C248.058 256.984 273.489 229.734 311.183 229.734C348.877 229.734 371.59 256.984 376.423 269.7M234.164 269.7V274.393M232.05 279.086H234.164V274.393M232.05 279.086V303.005V376.882M232.05 279.086H227.972H223.895M232.05 376.882H234.164V416.243M232.05 376.882H229.03M387.598 269.7H385.484M387.598 269.7V207.329M387.598 269.7H395.753M385.484 269.7V276.058M385.484 269.7H383.974M385.484 269.7V274.393M387.598 279.086H385.484V276.058M387.598 279.086V281.811M387.598 279.086H403.908M387.598 279.086H395.753M387.598 376.882H385.484V377.488M387.598 376.882V312.089M387.598 376.882V372.038M387.598 376.882H390.618M385.484 420.179H370.382M385.484 420.179H378.99H361.774H353.166M385.484 420.179H406.022M385.484 420.179H380.953M385.484 420.179H410.553V416.243H410.1H406.022M403.908 269.7H406.022M403.908 269.7V207.329M403.908 269.7H395.753M403.908 269.7H405.418H407.532M406.022 269.7V279.086M406.022 269.7H409.949C411.257 260.213 421.184 241.239 448.005 241.239C474.826 241.239 485.055 260.213 486.363 269.7H489.988M406.022 269.7V274.393M406.022 279.086H403.908M406.022 279.086V274.393M403.908 279.086V376.882M403.908 279.086H395.753M403.908 376.882H406.022V416.243M403.908 376.882H400.888M492.102 269.7H489.988M492.102 269.7V207.329M492.102 269.7H500.257M492.102 269.7H488.78H488.176V207.329M489.988 269.7V274.393M492.102 279.086H489.988V274.393M492.102 279.086V376.882M492.102 279.086H500.257M492.102 376.882H489.988V416.243M492.102 376.882H495.122M489.988 420.179H485.91H481.833V427.143M489.988 420.179H485.457V416.243H489.988M489.988 420.179H515.057V416.243H514.604H510.526M508.412 279.086H510.526V274.393M508.412 279.086V376.882M508.412 279.086H500.257M508.412 376.882H510.526V416.243M508.412 376.882H505.392M376.423 269.7H383.974M376.423 269.7H376.725M481.833 447.732V440.768M481.833 447.732H413.573V440.768M413.573 440.768H481.833M413.573 440.768V434.107M481.833 440.768V434.107M481.833 440.768V433.955M413.573 434.107H481.833M413.573 434.107V427.143M413.573 434.107L481.833 433.955M481.833 434.107V427.143M481.833 434.107V433.955M481.833 427.143V433.955M481.833 427.143H480.021M413.573 427.143V423.661M413.573 427.143H415.989M413.875 447.732H182.818V423.661M480.021 273.636C477.101 265.461 466.61 249.112 448.005 249.112M480.021 273.636H415.989M480.021 273.636V303.005M448.005 249.112V332.374M448.005 249.112C432.06 249.112 422.075 261.12 417.707 269.7M415.989 273.636V332.374M415.989 273.636C416.407 272.467 416.979 271.132 417.707 269.7M387.598 284.536H237.789H236.58M387.598 284.536V281.811M387.598 284.536V289.381M387.598 306.639V303.005V301.794M387.598 306.639V312.089M387.598 306.639H370.382M249.87 306.639H237.789V301.794M249.87 306.639V420.179M249.87 306.639H370.382M249.87 306.639H267.086M249.87 306.639V312.089M249.87 420.179H413.573V423.661M249.87 420.179H267.086M249.87 420.179V415.637M249.87 420.179H258.478H275.694H292.91H310.126H327.342H344.558H353.166M249.87 420.179H238.695M492.102 207.329H403.908M492.102 207.329H488.176M403.908 207.329H407.532M387.598 207.329H383.974M232.05 207.329H383.974M480.625 207.329V177.96M469.752 207.329V177.96M459.18 207.329V177.96M448.911 207.329V177.96M437.736 207.329V177.96M426.863 207.329V177.96M415.687 207.329V177.96M299.404 177.96V207.329M376.121 207.329V177.96M365.247 207.329V177.96M354.676 207.329V177.96M344.407 207.329V177.96M333.232 207.329V177.96M333.232 207.329H336.856M333.232 207.329H329.607M333.232 207.329V233.048M322.358 207.329V177.96M322.358 207.329H325.983M322.358 207.329H318.734M322.358 207.329V230.557M311.183 207.329V177.96M288.53 207.329V177.96M277.657 207.329V177.96M266.482 207.329V177.96M255.307 207.329V177.96M243.829 207.329V177.96M387.598 312.089H370.382M387.598 312.089V317.539M387.598 312.089H378.99M370.382 312.089V306.639M370.382 312.089H353.166M370.382 306.639H353.166M353.166 312.089V306.639M353.166 312.089H335.95M353.166 306.639H335.95M335.95 312.089V306.639M335.95 312.089H318.734M335.95 306.639H318.734M318.734 312.089V306.639M318.734 312.089H301.518M318.734 306.639H301.518M301.518 312.089V306.639M301.518 312.089H284.302M301.518 306.639H284.302M284.302 312.089V306.639M284.302 312.089H267.086M284.302 306.639H267.086M267.086 312.089V306.639M267.086 312.089H249.87M249.87 312.089H258.478M249.87 312.089V317.539M387.598 317.539H378.99M387.598 317.539V322.988M387.598 317.539H370.382M378.99 317.539V312.089M378.99 317.539H361.774M378.99 312.089H361.774M361.774 317.539V312.089M361.774 317.539H344.558M361.774 312.089H344.558M344.558 317.539V312.089M344.558 317.539H327.342M344.558 312.089H327.342M327.342 317.539V312.089M327.342 317.539H310.126M327.342 312.089H310.126M310.126 317.539V312.089M310.126 317.539H292.91M310.126 312.089H292.91M292.91 317.539V312.089M292.91 317.539H275.694M292.91 312.089H275.694M275.694 317.539V312.089M275.694 317.539H258.478M275.694 312.089H258.478M258.478 317.539V312.089M258.478 317.539H249.87M249.87 317.539H267.086M249.87 317.539V322.988M370.382 322.988V317.539M370.382 322.988H353.166M370.382 322.988H387.598M370.382 317.539H353.166M353.166 322.988V317.539M353.166 322.988H335.95M353.166 322.988H344.558M353.166 322.988H361.774M353.166 317.539H335.95M335.95 322.988V317.539M335.95 322.988H318.734M335.95 317.539H318.734M318.734 322.988V317.539M318.734 322.988H301.518M318.734 317.539H301.518M301.518 322.988V317.539M301.518 322.988H284.302M301.518 317.539H284.302M284.302 322.988V317.539M284.302 322.988H267.086M284.302 317.539H267.086M267.086 322.988V317.539M267.086 322.988H249.87M249.87 322.988H258.478M249.87 322.988V328.438M387.598 322.988V328.438M387.598 322.988H378.99M387.598 328.438H378.99M387.598 328.438V333.888M387.598 328.438H370.382M378.99 328.438V322.988M378.99 328.438H361.774M378.99 322.988H361.774M361.774 328.438V322.988M361.774 328.438H344.558M344.558 328.438V322.988M344.558 328.438H327.342M344.558 322.988H327.342M327.342 328.438V322.988M327.342 328.438H310.126M327.342 322.988H310.126M310.126 328.438V322.988M310.126 328.438H292.91M310.126 322.988H292.91M292.91 328.438V322.988M292.91 328.438H275.694M292.91 322.988H275.694M275.694 328.438V322.988M275.694 328.438H258.478M275.694 322.988H258.478M258.478 328.438V322.988M258.478 328.438H249.87M249.87 328.438H267.086M249.87 328.438V333.888M370.382 333.888V328.438M370.382 333.888H353.166M370.382 333.888H387.598M370.382 328.438H353.166M353.166 333.888V328.438M353.166 333.888H335.95M353.166 333.888H344.558M353.166 333.888H361.774M353.166 328.438H335.95M335.95 333.888V328.438M335.95 333.888H318.734M335.95 328.438H318.734M318.734 333.888V328.438M318.734 333.888H301.518M318.734 328.438H301.518M301.518 333.888V328.438M301.518 333.888H284.302M301.518 328.438H284.302M284.302 333.888V328.438M284.302 333.888H267.086M284.302 333.888H275.694M284.302 333.888H292.91M284.302 328.438H267.086M267.086 333.888V328.438M267.086 333.888H249.87M249.87 333.888H258.478M249.87 333.888V339.338M387.598 333.888V339.338M387.598 333.888H378.99M387.598 339.338H378.99M387.598 339.338V344.788M387.598 339.338H370.382M378.99 339.338V333.888M378.99 339.338H361.774M378.99 333.888H361.774M361.774 339.338V333.888M361.774 339.338H344.558M344.558 339.338V333.888M344.558 339.338H327.342M344.558 333.888H327.342M327.342 339.338V333.888M327.342 339.338H310.126M327.342 333.888H310.126M310.126 339.338V333.888M310.126 339.338H292.91M310.126 333.888H292.91M292.91 339.338V333.888M292.91 339.338H275.694M275.694 339.338V333.888M275.694 339.338H258.478M275.694 333.888H258.478M258.478 339.338V333.888M258.478 339.338H249.87M249.87 339.338H267.086M249.87 339.338V344.788M370.382 344.788V339.338M370.382 344.788H353.166M370.382 344.788H387.598M370.382 339.338H353.166M353.166 344.788V339.338M353.166 344.788H335.95M353.166 344.788H344.558M353.166 344.788H361.774M353.166 339.338H335.95M335.95 344.788V339.338M335.95 344.788H318.734M335.95 339.338H318.734M318.734 344.788V339.338M318.734 344.788H301.518M318.734 339.338H301.518M301.518 344.788V339.338M301.518 344.788H284.302M301.518 339.338H284.302M284.302 344.788V339.338M284.302 344.788H267.086M284.302 339.338H267.086M267.086 344.788V339.338M267.086 344.788H249.87M249.87 344.788H258.478M249.87 344.788V350.238M387.598 344.788V350.238M387.598 344.788H378.99M387.598 350.238H378.99M387.598 350.238V355.688M387.598 350.238H370.382M378.99 350.238V344.788M378.99 350.238H361.774M378.99 344.788H361.774M361.774 350.238V344.788M361.774 350.238H344.558M344.558 350.238V344.788M344.558 350.238H327.342M344.558 344.788H327.342M327.342 350.238V344.788M327.342 350.238H310.126M327.342 344.788H310.126M310.126 350.238V344.788M310.126 350.238H292.91M310.126 344.788H292.91M292.91 350.238V344.788M292.91 350.238H275.694M292.91 344.788H275.694M275.694 350.238V344.788M275.694 350.238H258.478M275.694 344.788H258.478M258.478 350.238V344.788M258.478 350.238H249.87M249.87 350.238H267.086M249.87 350.238V355.688M370.382 355.688V350.238M370.382 355.688H353.166M370.382 355.688H387.598M370.382 350.238H353.166M353.166 355.688V350.238M353.166 355.688H335.95M353.166 355.688H344.558M353.166 355.688H361.774M353.166 350.238H335.95M335.95 355.688V350.238M335.95 355.688H318.734M335.95 350.238H318.734M318.734 355.688V350.238M318.734 355.688H301.518M318.734 350.238H301.518M301.518 355.688V350.238M301.518 355.688H284.302M301.518 350.238H284.302M284.302 355.688V350.238M284.302 355.688H267.086M284.302 355.688H275.694M284.302 355.688H292.91M284.302 350.238H267.086M267.086 355.688V350.238M267.086 355.688H249.87M249.87 355.688H258.478M249.87 355.688V361.138M387.598 355.688V361.138M387.598 355.688H378.99M387.598 361.138H378.99M387.598 361.138V366.588M387.598 361.138H370.382M378.99 361.138V355.688M378.99 361.138H361.774M378.99 355.688H361.774M361.774 361.138V355.688M361.774 361.138H344.558M344.558 361.138V355.688M344.558 361.138H327.342M344.558 355.688H327.342M327.342 361.138V355.688M327.342 361.138H310.126M327.342 355.688H310.126M310.126 361.138V355.688M310.126 361.138H292.91M310.126 355.688H292.91M292.91 361.138V355.688M292.91 361.138H275.694M275.694 361.138V355.688M275.694 361.138H258.478M275.694 355.688H258.478M258.478 361.138V355.688M258.478 361.138H249.87M249.87 361.138H267.086M249.87 361.138V366.588M370.382 366.588V361.138M370.382 366.588H353.166M370.382 366.588H387.598M370.382 361.138H353.166M353.166 366.588V361.138M353.166 366.588H335.95M353.166 366.588H344.558M353.166 366.588H361.774M353.166 361.138H335.95M335.95 366.588V361.138M335.95 366.588H318.734M335.95 361.138H318.734M318.734 366.588V361.138M318.734 366.588H301.518M318.734 361.138H301.518M301.518 366.588V361.138M301.518 366.588H284.302M301.518 361.138H284.302M284.302 366.588V361.138M284.302 366.588H267.086M284.302 361.138H267.086M267.086 366.588V361.138M267.086 366.588H249.87M249.87 366.588H258.478M249.87 366.588V372.038M387.598 366.588V372.038M387.598 366.588H378.99M387.598 372.038H378.99M387.598 372.038H370.382M378.99 372.038V366.588M378.99 372.038H361.774M378.99 366.588H361.774M361.774 372.038V366.588M361.774 372.038H344.558M344.558 372.038V366.588M344.558 372.038H327.342M344.558 366.588H327.342M327.342 372.038V366.588M327.342 372.038H310.126M327.342 366.588H310.126M310.126 372.038V366.588M310.126 372.038H292.91M310.126 366.588H292.91M292.91 372.038V366.588M292.91 372.038H275.694M292.91 366.588H275.694M275.694 372.038V366.588M275.694 372.038H258.478M275.694 366.588H258.478M258.478 372.038V366.588M258.478 372.038H249.87M249.87 372.038H267.086M249.87 372.038V377.488M370.382 377.488V372.038M370.382 377.488H353.166M370.382 377.488H385.484M370.382 372.038H353.166M353.166 377.488V372.038M353.166 377.488H335.95M353.166 377.488H344.558M353.166 377.488H361.774M353.166 372.038H335.95M335.95 377.488V372.038M335.95 377.488H318.734M335.95 372.038H318.734M318.734 377.488V372.038M318.734 377.488H301.518M318.734 372.038H301.518M301.518 377.488V372.038M301.518 377.488H284.302M301.518 372.038H284.302M284.302 377.488V372.038M284.302 377.488H267.086M284.302 377.488H275.694M284.302 377.488H292.91M284.302 372.038H267.086M267.086 377.488V372.038M267.086 377.488H249.87M249.87 377.488H258.478M249.87 377.488V382.938M385.484 377.488V382.938M385.484 377.488H378.99M385.484 382.938H378.99M385.484 382.938V388.388M385.484 382.938H370.382M378.99 382.938V377.488M378.99 382.938H361.774M378.99 377.488H361.774M361.774 382.938V377.488M361.774 382.938H344.558M344.558 382.938V377.488M344.558 382.938H327.342M344.558 377.488H327.342M327.342 382.938V377.488M327.342 382.938H310.126M327.342 377.488H310.126M310.126 382.938V377.488M310.126 382.938H292.91M310.126 377.488H292.91M292.91 382.938V377.488M292.91 382.938H275.694M275.694 382.938V377.488M275.694 382.938H258.478M275.694 377.488H258.478M258.478 382.938V377.488M258.478 382.938H249.87M249.87 382.938H267.086M249.87 382.938V388.388M370.382 388.388V382.938M370.382 388.388H353.166M370.382 388.388H385.484M370.382 382.938H353.166M353.166 388.388V382.938M353.166 388.388H335.95M353.166 388.388H344.558M353.166 388.388H361.774M353.166 382.938H335.95M335.95 388.388V382.938M335.95 388.388H318.734M335.95 382.938H318.734M318.734 388.388V382.938M318.734 388.388H301.518M318.734 382.938H301.518M301.518 388.388V382.938M301.518 388.388H284.302M301.518 382.938H284.302M284.302 388.388V382.938M284.302 388.388H267.086M284.302 388.388H275.694M284.302 388.388H292.91M284.302 382.938H267.086M267.086 388.388V382.938M267.086 388.388H249.87M249.87 388.388H258.478M249.87 388.388V393.838M385.484 388.388H378.99M385.484 388.388V393.838M378.99 388.388H361.774M378.99 388.388V393.838M361.774 388.388V393.838M344.558 388.388H327.342M344.558 388.388V393.838M327.342 388.388H310.126M327.342 388.388V393.838M310.126 388.388H292.91M310.126 388.388V393.838M292.91 388.388H275.694M292.91 388.388V393.838M275.694 388.388H258.478M275.694 388.388V393.838M258.478 388.388V393.838M385.484 393.838H378.99M385.484 393.838V399.288M385.484 393.838H370.382M378.99 393.838H361.774M361.774 393.838H344.558M344.558 393.838H327.342M327.342 393.838H310.126M310.126 393.838H292.91M292.91 393.838H275.694M275.694 393.838H258.478M258.478 393.838H249.87M249.87 393.838H267.086M249.87 393.838V399.288M370.382 399.288V393.838M370.382 399.288H353.166M370.382 399.288H385.484M370.382 393.838H353.166M353.166 399.288V393.838M353.166 399.288H335.95M353.166 399.288H344.558M353.166 399.288H361.774M353.166 393.838H335.95M335.95 399.288V393.838M335.95 399.288H318.734M335.95 393.838H318.734M318.734 399.288V393.838M318.734 399.288H301.518M318.734 393.838H301.518M301.518 399.288V393.838M301.518 399.288H284.302M301.518 393.838H284.302M284.302 399.288V393.838M284.302 399.288H267.086M284.302 399.288H275.694M284.302 399.288H292.91M284.302 393.838H267.086M267.086 399.288V393.838M267.086 399.288H249.87M249.87 399.288H258.478M249.87 399.288V404.738M385.484 399.288H378.99M385.484 399.288V404.738M378.99 399.288H361.774M378.99 399.288V404.738M361.774 399.288V404.738M344.558 399.288H327.342M344.558 399.288V404.738M327.342 399.288H310.126M327.342 399.288V404.738M310.126 399.288H292.91M310.126 399.288V404.738M292.91 399.288H275.694M292.91 399.288V404.738M275.694 399.288H258.478M275.694 399.288V404.738M258.478 399.288V404.738M385.484 404.738H378.99M385.484 404.738V410.187M385.484 404.738H370.382M378.99 404.738H361.774M361.774 404.738H344.558M344.558 404.738H327.342M327.342 404.738H310.126M310.126 404.738H292.91M292.91 404.738H275.694M275.694 404.738H258.478M258.478 404.738H249.87M249.87 404.738H267.086M249.87 404.738V410.187M370.382 410.187V404.738M370.382 410.187H353.166M370.382 410.187H385.484M370.382 404.738H353.166M353.166 410.187V404.738M353.166 410.187H335.95M353.166 410.187H344.558M353.166 410.187H361.774M353.166 404.738H335.95M335.95 410.187V404.738M335.95 410.187H318.734M335.95 404.738H318.734M318.734 410.187V404.738M318.734 410.187H301.518M318.734 404.738H301.518M301.518 410.187V404.738M301.518 410.187H284.302M301.518 404.738H284.302M284.302 410.187V404.738M284.302 410.187H267.086M284.302 410.187H275.694M284.302 410.187H292.91M284.302 404.738H267.086M267.086 410.187V404.738M267.086 410.187H249.87M249.87 410.187H258.478M249.87 410.187V415.637M385.484 410.187H378.99M385.484 410.187V415.637V416.243M378.99 410.187H361.774M378.99 410.187V415.637H361.774M361.774 410.187V415.637M344.558 410.187H327.342M344.558 410.187V415.637M327.342 410.187H310.126M327.342 410.187V415.637M310.126 410.187H292.91M310.126 410.187V415.637M292.91 410.187H275.694M292.91 410.187V415.637M275.694 410.187H258.478M275.694 410.187V415.637M258.478 410.187V415.637M361.774 415.637H344.558M344.558 415.637H327.342M327.342 415.637H310.126M310.126 415.637H292.91M292.91 415.637H275.694M275.694 415.637H258.478M258.478 415.637H249.87M249.87 415.637H267.086M370.382 420.179V415.637H353.166M370.382 420.179H353.166M353.166 420.179V415.637M353.166 420.179H335.95M353.166 415.637H335.95M335.95 420.179V415.637M335.95 420.179H318.734M335.95 415.637H318.734M318.734 420.179V415.637M318.734 420.179H301.518M318.734 415.637H301.518M301.518 420.179V415.637M301.518 420.179H284.302M301.518 415.637H284.302M284.302 420.179V415.637M284.302 420.179H267.086M284.302 415.637H267.086M267.086 420.179V415.637M385.484 276.058H237.184V279.086H235.674V281.811M385.484 276.058V274.393M387.598 281.811H235.674M235.674 281.811V284.536H236.58M356.79 279.086H271.314M387.598 301.794H237.789M387.598 301.794V295.587V289.381M237.789 301.794H236.58V295.587V289.381M236.58 284.536V289.381M387.598 289.381H236.58M234.164 274.393H213.626M223.895 279.086V376.58M223.895 376.882H227.972H229.03M223.895 376.882H219.817H218.76M223.895 376.882V376.58M395.753 269.7V177.96M395.753 177.96H227.972M395.753 177.96H223.895M219.817 177.96H223.895M219.817 177.96H200.336M227.972 177.96H500.257M227.972 177.96H223.895M413.573 423.661H182.818M383.974 207.329H380.349M383.974 207.329V269.7M383.974 269.7H381.859H380.349M380.349 207.329H376.725M380.349 207.329V269.7M380.349 269.7H378.235H376.725M376.725 207.329H373.1M376.725 207.329V269.7M373.1 207.329H369.476M373.1 207.329V263.217M369.476 207.329H365.851M369.476 207.329V258.071M365.851 207.329H362.227M365.851 207.329V253.81M362.227 207.329H358.603M362.227 207.329V250.139M358.603 207.329H354.978M358.603 207.329V246.924M354.978 207.329H351.354M354.978 207.329V244.088M351.354 207.329H347.729M351.354 207.329V241.583M347.729 207.329H344.105M347.729 207.329V239.373M344.105 207.329H340.48M344.105 207.329V237.433M340.48 207.329H336.856M340.48 207.329V235.742M336.856 207.329V234.285M329.607 207.329H325.983M329.607 207.329V232.02M325.983 207.329V231.193M318.734 207.329H315.11M318.734 207.329V230.106M315.11 207.329H311.485M315.11 207.329V229.834M311.485 207.329H307.861M311.485 207.329V229.735M271.616 207.329H275.241M271.616 207.329H267.992M271.616 207.329V240.574M260.743 207.329H264.368M260.743 207.329H257.119M260.743 207.329V248.126M307.861 207.329H304.236M307.861 207.329V229.805M304.236 207.329H300.612M304.236 207.329V230.045M300.612 207.329H296.987M300.612 207.329V230.459M296.987 207.329H293.363M296.987 207.329V231.049M293.363 207.329H289.739M293.363 207.329V231.819M289.739 207.329H286.114M289.739 207.329V232.775M286.114 207.329H282.49M286.114 207.329V233.921M282.49 207.329H278.865M282.49 207.329V235.265M278.865 207.329H275.241M278.865 207.329V236.814M275.241 207.329V238.58M267.992 207.329H264.368M267.992 207.329V242.814M264.368 207.329V245.321M257.119 207.329H253.494M257.119 207.329V251.275M253.494 207.329H249.87M253.494 207.329V254.84M246.246 207.329H249.87M246.246 207.329H242.621M246.246 207.329V263.924M249.87 207.329V258.952M242.621 207.329H238.997M242.621 207.329V269.7H240.507H238.997M238.997 207.329H235.372V269.7H236.882H238.997M238.997 207.329V269.7M406.022 274.393H385.484M395.753 279.086V376.882M395.753 376.882V416.243M395.753 376.882H390.618M395.753 376.882H400.888M223.895 177.96V269.7M500.257 269.7V177.96M500.257 279.086V376.882M500.257 376.882V416.243M500.257 376.882H505.392M500.257 376.882H495.122M489.988 274.393H510.526M200.336 177.96H208.491H216.646H224.801H232.956H241.111H249.266H257.421H265.576H273.731H281.886H290.041H298.196H306.351H314.505H322.66H330.815H338.97H347.125H355.28H363.435H371.59H379.745H387.9H396.055H404.21H412.365H420.52H428.675H436.83H444.985H453.14H461.295H469.45H477.604H485.759H493.914H502.069M407.532 269.7V207.329M407.532 269.7H409.042M407.532 207.329H411.157M411.157 264.86V207.329M411.157 207.329H414.781M414.781 257.569V207.329M414.781 207.329H418.406M418.406 252.947V207.329M418.406 207.329H422.03M422.03 249.573V207.329M422.03 207.329H425.654M425.654 247.018V207.329M425.654 207.329H429.279M429.279 245.072V207.329M429.279 207.329H432.903M432.903 243.609V207.329M432.903 207.329H436.528M436.528 242.547V207.329M436.528 207.329H440.152M440.152 241.827V207.329M440.152 207.329H443.777M443.777 241.403V207.329M443.777 207.329H447.401M447.401 241.243V207.329M447.401 207.329H451.025M451.025 241.322V207.329M451.025 207.329H454.65M454.65 241.654V207.329M454.65 207.329H458.274M458.274 242.268V207.329M458.274 207.329H461.899M461.899 243.205V207.329M461.899 207.329H465.523M465.523 244.514V207.329M465.523 207.329H469.147M469.147 246.267V207.329M469.147 207.329H472.772M472.772 248.565V207.329M472.772 207.329H476.698M476.698 251.861V207.329M476.698 207.329H480.323M480.323 255.981V207.329M480.323 207.329H484.249M484.249 262.645V207.329M484.249 207.329H488.176M238.695 420.179V416.243H234.164M209.095 420.179V416.243H213.626M213.626 416.243H218.76M234.164 416.243H229.03M354.676 420.179H380.953M380.953 420.179V416.243H385.484M385.484 416.243H390.618M406.022 416.243H400.888M395.753 416.243H390.618M395.753 416.243H400.888M390.618 416.243V376.882M400.888 416.243V376.882M223.895 416.243V376.58M223.895 416.243H218.76M223.895 416.243H229.03M218.76 416.243V376.882M229.03 416.243V376.882M489.988 416.243H495.122M510.526 416.243H505.392M500.257 416.243H495.122M500.257 416.243H505.392M495.122 416.243V376.882M505.392 416.243V376.882M480.021 427.143V420.179M480.021 427.143H472.017M415.989 427.143V346.908M415.989 427.143H423.993M480.021 332.374V303.005M480.021 332.374V346.908M480.021 332.374H472.017M415.989 332.374V346.908M415.989 332.374H423.993M448.005 332.374V427.143M448.005 332.374H456.009M448.005 332.374H440.001M448.005 427.143H456.009M448.005 427.143H431.997M464.013 332.374V291.511C462.704 288.378 457.67 282.053 448.005 281.811C438.34 282.053 433.306 288.378 431.997 291.511V332.374M464.013 332.374H472.017M464.013 332.374H456.009M431.997 332.374H423.993M431.997 332.374H440.001M480.021 303.005H414.781M417.707 269.7H440.001M477.906 269.7H440.001M415.687 420.179H464.013M480.021 420.179V355.688M480.021 420.179H464.013M480.021 355.688H415.687M480.021 355.688V346.908M480.021 346.908H464.013M415.989 346.908H431.997M472.017 332.374V427.143M472.017 427.143H464.013M456.009 332.374V427.143M456.009 332.374V250.02M456.009 427.143H464.013M431.997 427.143H423.993M431.997 427.143V420.179M423.993 332.374V427.143M440.001 332.374V427.143M440.001 332.374V269.7M464.013 364.469C461.597 364.953 460.59 367.194 460.388 368.405V388.236V395.957V411.399V420.179H464.013M464.013 364.469C466.429 364.953 467.436 367.194 467.637 368.405V395.957V411.399V420.179H464.013M464.013 364.469V346.908M464.013 420.179V427.143M464.013 346.908H431.997M431.997 364.469C429.581 364.953 428.574 367.194 428.373 368.405V388.236V395.957V411.399V420.179H431.997M431.997 364.469C434.413 364.953 435.42 367.194 435.622 368.405V395.957V411.399V420.179H431.997M431.997 364.469V346.908M440.001 269.7V250.02M651.275 102.872H624.092" stroke="#0167FF" stroke-width="1.5"/>
<path d="M215.544 245.225H113.856L34.7656 188.732M214.675 356.473H113.856L16.5139 391.238M218.151 447.732L154.705 514.654L30.42 531.168" stroke="#0167FF" stroke-width="1.5"/>
<path d="M238.141 123.547L188.6 54.017L111.248 22.7284" stroke="#0167FF" stroke-width="1.5"/>
<path d="M35.7529 183.517C35.7529 187.903 32.1975 191.458 27.8116 191.458C23.4258 191.458 19.8704 187.903 19.8704 183.517C19.8704 179.131 23.4258 175.576 27.8116 175.576C32.1975 175.576 35.7529 179.131 35.7529 183.517Z" stroke="#0167FF" stroke-width="1.5"/>
<path d="M112.236 18.3826C112.236 22.7684 108.681 26.3238 104.295 26.3238C99.9092 26.3238 96.3538 22.7684 96.3538 18.3826C96.3538 13.9967 99.9092 10.4413 104.295 10.4413C108.681 10.4413 112.236 13.9967 112.236 18.3826Z" stroke="#0167FF" stroke-width="1.5"/>
<circle cx="8.69128" cy="393.846" r="7.94128" stroke="#0167FF" stroke-width="1.5"/>
<circle cx="22.5973" cy="531.168" r="7.94128" stroke="#0167FF" stroke-width="1.5"/>
<path d="M1079.46 245.225H1181.14L1260.23 188.732M1080.33 356.473H1181.14L1278.49 391.238M1076.85 447.732L1140.3 514.654L1264.58 531.168" stroke="#0167FF" stroke-width="1.5"/>
<path d="M1056.86 123.547L1106.4 54.017L1183.75 22.7284" stroke="#0167FF" stroke-width="1.5"/>
<path d="M1259.25 183.517C1259.25 187.903 1262.8 191.458 1267.19 191.458C1271.57 191.458 1275.13 187.903 1275.13 183.517C1275.13 179.131 1271.57 175.576 1267.19 175.576C1262.8 175.576 1259.25 179.131 1259.25 183.517Z" stroke="#0167FF" stroke-width="1.5"/>
<path d="M1182.76 18.3826C1182.76 22.7684 1186.32 26.3238 1190.7 26.3238C1195.09 26.3238 1198.65 22.7684 1198.65 18.3826C1198.65 13.9967 1195.09 10.4413 1190.7 10.4413C1186.32 10.4413 1182.76 13.9967 1182.76 18.3826Z" stroke="#0167FF" stroke-width="1.5"/>
<circle cx="8.69128" cy="8.69128" r="7.94128" transform="matrix(-1 0 0 1 1295 385.154)" stroke="#0167FF" stroke-width="1.5"/>
<circle cx="8.69128" cy="8.69128" r="7.94128" transform="matrix(-1 0 0 1 1281.09 522.477)" stroke="#0167FF" stroke-width="1.5"/>
</g>
</svg>
