<svg version="1.2" xmlns="http://www.w3.org/2000/svg" viewBox="0 0 288 286" width="288" height="286">
	<title>santa-hat-svg</title>
	<style>
		.s0 { fill: #bc262f } 
		.s1 { fill: #a51b28 } 
		.s2 { fill: #ffffff } 
		.s3 { fill: #1f2207 } 
		.s4 { fill: #c1c1c1 } 
		.s5 { fill: #ed2f2f } 
		.s6 { fill: #a0172b } 
	</style>
	<g id="Layer 1">
		<g id="&lt;Group&gt;">
			<g id="&lt;Group&gt;">
				<g id="&lt;Group&gt;">
					<path id="&lt;Path&gt;" class="s0" d="m42.2 162.1l-3.8 62.3 6 11.3 6.2 11.7c0 0-21.9 14.1-29.6-6.3q-0.3-0.9-0.6-1.9c-1.5-5-3.2-16.3-4.8-30.9v-0.1c-5.8-53.1-10-150.9 2.8-158.4 16.4-9.6 53.8-14 69.2-22.5 15.3-8.5 65.7-35.4 100.5-23.2 34.7 12.3 68.6 64.7 68.6 64.7l-77.8 33.8z"/>
				</g>
				<g id="&lt;Group&gt;">
					<path id="&lt;Path&gt;" class="s1" d="m42.2 162.1l-3.8 62.3 6 11.3-6.7 1.1-16.7 4.3-3.3 0.8-7.7-16 5.6-17.6v-0.1c0 0 17.4-7.8 18.3-15.5 0.9-7.7-4.9-13.8-9.2-23-4.2-9.2 7.7-14 7.7-24.5 0 0 2.3 7.6 0.3 12.5 0 0 6.3-11.2 5-25.8-1.2-14.7 5.3-17.3 11.4-24 6.1-6.7 7.1-29.2 5.8-38.4-1.4-9.2 3.6-4.4 12.4 5.2 8.7 9.5 4.6 32.3 1.9 41.5-2.7 9.2 33-7.8 43.3-13.3 0 0-4.1-0.4-12.3 3.8 0 0 15.8-11.6 37.6-14.7 21.7-3 41-6 49.7-8.4l-8.6 19z"/>
				</g>
				<g id="fur 2 ">
					<g id="&lt;Group&gt;">
						<path id="&lt;Path&gt;" class="s2" d="m38.7 170.8c3.4-14.3 16.4-23.5 30.3-29 1-0.4 0.9-1.9-0.2-2.2-0.7-0.2-1.4-0.3-2.1-0.5-1.2-0.2-1.3-2-0.1-2.3 19.5-5 51.6-26 67.3-33.3 31.7-14.8 67.5-24.3 83-27.5 1.3-0.2 1.3-2 0-2.3q0 0-0.1 0c-1.2-0.2-1.3-2-0.1-2.3 9.7-2.6 17.2-4 27.3-3.9 3.2 0 9.5 0.6 12.7 1.3 15.5 3.5 28.7 16.2 28.8 41.8 0 1.1-1.5 1.6-2.2 0.6q-0.4-0.6-0.8-1c-0.8-1-2.4-0.2-2 1 1.5 5.8 0.1 11.6-1 14.3-4.4 11.5-19.2 18.1-18.7 17.4 1.1-1.5 1.9-3.2 2.2-4.7 0.1-1.1-1.1-1.8-2-1.1-11.4 9.5-28.6 20.2-47.8 30-1 0.6-2.1-0.5-1.6-1.5q0 0 0-0.1c0.5-1-0.7-2.1-1.7-1.5-8.7 5.1-15.5 11.5-31.5 19.5q-0.1 0-0.1 0c-25.3 10.8-46.1 16.7-63.8 18.2-1.1 0.1-1.7-1.1-1-1.9l2.9-3.4c0.7-0.8 0.1-2-0.9-1.9-12.6 0.5-39.7 22-52.9 18.5-1.1-0.3-1.3-1.7-0.3-2.2 3.9-2 10-5.3-8.3-9.6-8.7-2.6-19.6-12.8-15.3-30.4z"/>
						<g id="&lt;Group&gt;" style="display: none">
							<path id="&lt;Path&gt;" class="s3" d="m37.7 170.6c1.4-5.7 4.3-10.8 8.2-15 4.2-4.6 9.3-8.2 14.8-11.1q2-1.1 4.1-2 1.1-0.5 2.2-0.9c0.3-0.2 1.8-0.6 1.6-1-0.2-0.4-2-0.4-2.4-0.6-0.5-0.2-0.9-0.5-1.2-1-0.5-0.9-0.2-2.1 0.6-2.7 0.8-0.7 2.2-0.8 3.2-1.1q1.8-0.6 3.4-1.2 3.9-1.4 7.6-3c5.4-2.5 10.7-5.2 16-8 10.3-5.4 20.3-11.4 30.6-16.8 11.6-6.2 23.9-11.1 36.2-15.6 12.5-4.4 25.1-8.4 38-11.7q6.8-1.8 13.7-3.3c0.4-0.1 2.5-0.4 2.6-0.7 0-0.2-1-0.5-1.2-0.6-0.4-0.3-0.7-0.7-0.8-1.2-0.2-1.1 0.3-2.1 1.3-2.5 1.7-0.8 3.8-1.1 5.6-1.5 7-1.7 14.2-2.6 21.4-2.6 5.5 0 11.2 0.5 16.4 2 9 2.7 16.6 8.8 21.1 17 2.8 5 4.4 10.5 5.2 16.2q0.3 2.3 0.4 4.7c0.1 1.5 0.5 3.5 0 4.9-0.4 1-1.5 1.6-2.5 1.4-0.6-0.2-1-0.5-1.3-1-0.2-0.2-0.6-1-0.9-1-0.3 0.1 0 1 0.1 1.2 1.2 6 0 12.7-3.2 17.9-2.7 4.3-6.6 7.8-10.8 10.6-1.5 1-3 1.9-4.6 2.7-0.7 0.3-1.8 1.1-2.6 0.8-1.3-0.3-0.5-1.5-0.1-2.2 0.5-0.8 1-1.6 1.3-2.5 0.2-0.6 0.6-1.8-0.4-1-2.4 1.8-4.7 3.7-7.2 5.5-12.1 8.9-25.2 16.4-38.5 23.3-1.2 0.6-2.7 1.8-4.1 1-0.5-0.3-0.9-0.8-1-1.4-0.1-0.3 0.2-1.7 0-1.7-0.2-0.2-1.4 0.8-1.6 0.9q-0.7 0.5-1.5 0.9-1.4 0.9-2.9 1.9c-4.5 3.1-8.9 6.2-13.5 9.1q-4.6 2.7-9.3 5.2c-3.4 1.8-7 3.3-10.6 4.7-7 2.8-14.2 5.4-21.4 7.7-6.3 2-12.6 3.7-19 5q-4.4 0.9-8.8 1.6-2.1 0.3-4.1 0.5c-1.3 0.1-3 0.6-4.1 0.2-1.1-0.4-1.7-1.6-1.4-2.7 0.3-0.7 0.8-1.2 1.3-1.7 0.6-0.7 1.4-1.4 1.9-2.2 0.1-0.3 0.4-0.4-0.1-0.5-0.3-0.1-0.8 0-1.1 0.1-4.1 0.6-8.1 2.4-11.9 4.2-9.4 4.4-18.4 10-28.4 13.1-3.5 1.1-8.2 2.3-11.8 1-1.1-0.4-1.7-1.5-1.5-2.6 0.2-0.9 1-1.3 1.7-1.7 0.9-0.4 1.8-0.9 2.4-1.5 0.3-0.3 0.6-0.6 0.6-0.7 0.1-0.3 0.1-0.4 0-0.6-0.7-1.1-2.3-1.8-3.6-2.3-2.8-1.1-5.8-1.6-8.7-2.6-2-0.6-3.8-1.6-5.5-2.7-4-2.7-7.1-6.4-9-10.9-2.3-5.6-2.3-11.8-0.9-17.7 0.3-1.3 2.2-0.7 1.9 0.5-0.7 3-1 6.1-0.8 9.1 0.6 8.8 6.5 17.2 15 19.9 2.4 0.7 18.7 4 12.3 9.5-0.8 0.7-1.7 1.2-2.5 1.7-0.2 0-0.6 0.2-0.7 0.3-0.4 0.4 0.1 0.5 0.5 0.6q1.1 0.2 2.3 0.2c4 0 8-1.3 11.7-2.8 9-3.5 17.3-8.5 26.1-12.5 3.5-1.5 7.1-3.1 10.9-3.5 0.9-0.1 1.8-0.3 2.6 0.4 0.7 0.7 0.9 1.8 0.5 2.7-0.7 1.2-2 2.3-2.9 3.4-0.2 0.2-0.6 0.4-0.1 0.6 0.3 0.2 1.2-0.1 1.6-0.1q2-0.2 4-0.5 4-0.5 7.9-1.3c5.8-1.1 11.6-2.5 17.2-4.2 6.5-1.9 12.8-4.1 19.1-6.5q5.1-1.9 10.1-4c3.5-1.4 6.7-3.1 10-4.9 4.8-2.7 9.5-5.7 14-8.8 2-1.3 3.9-2.7 5.8-4 1.7-1.1 3.5-2.6 5.4-3.4 1.1-0.4 2.4 0 2.9 1.1 0.3 0.7 0.1 1.1 0.1 1.7-0.1 0.5-0.4 0.6 0.5 0.3 0.3-0.2 0.6-0.3 0.9-0.5q5.1-2.6 10.2-5.5c6-3.3 12-6.8 17.9-10.6 5.2-3.3 10.3-6.8 15.2-10.7 1.5-1.1 3.9-4.1 5.9-2.4 1 0.8 0.8 2 0.5 3.1q-0.4 1.1-0.9 2.1-0.3 0.6-0.7 1.1c0 0.1-0.5 1.1-0.4 0.5q0-0.4-0.1-0.7-0.3-0.3-0.6-0.5c-0.4-0.2-0.5 0.1-0.2-0.1 0.2-0.1 0.3-0.1 0.4-0.1q0.9-0.4 1.8-0.9c4.1-2.2 8-5.1 11.1-8.6 4.2-4.7 6.3-10.6 6-16.9q-0.1-1.7-0.5-3.4c-0.1-0.7-0.3-1.2 0-1.9 0.4-1.1 1.7-1.7 2.8-1.2 0.8 0.3 1 1.3 1.7 1.6 0.3 0.2 0.2 0.3 0.4-0.2 0.1-0.3 0-0.9-0.1-1.2q0-2.7-0.3-5.4c-0.6-6-2.2-12-5.1-17.2-4.8-8.6-12.9-14.5-22.5-16.7-6.3-1.4-13.1-1.5-19.6-1.1q-5.5 0.4-11 1.5-2.9 0.6-5.8 1.4c-0.8 0.2-2.1 0.3-2.9 0.7-0.7 0.4 0 0.4 0.5 0.7 0.9 0.4 1.4 1.6 1 2.6-0.3 1.1-1.4 1.4-2.4 1.6q-3.1 0.6-6.2 1.4-8.2 1.9-16.3 4.2c-14 3.9-27.7 8.5-41.2 13.8-6.8 2.6-13.6 5.5-20.2 8.7-4.6 2.3-9.1 4.8-13.6 7.3-11 6.2-22 12.5-33.4 17.9-5 2.4-10.1 4.7-15.4 6.4-0.4 0.1-3.2 0.7-3.2 1-0.1 0.4 2 0.6 2.3 0.7 0.5 0.2 1 0.5 1.3 1 1.7 2.9-3.2 4-4.9 4.8-11.6 5.3-22.7 13.8-25.9 26.7-0.3 1.3-2.2 0.7-1.9-0.5z"/>
						</g>
					</g>
				</g>
				<g id="fur ball 2 ">
					<g id="&lt;Group&gt;">
						<path id="&lt;Path&gt;" class="s2" d="m26.8 218.3c5.5-0.6 11.6 0.6 16.7 2.7 7.6 3.1 12.5 10.6 13.5 15.3 0.2 1 1.6 1.3 2.2 0.5 1.6-1.9 2-3.5 2.4-5.9 0.2-1.3 1.9-1.6 2.4-0.4 6.3 13.4 3.2 31-7.9 41.1q1.6-0.1 3.2-0.3c1-0.1 1.8 1.1 1.2 2-3.8 6.4-11.5 10.4-18.9 11.4-8.2 1.2-10.7 1-20.1-2.5q-0.1-0.1-0.2-0.1c-9.7-5.2-12.1-8.4-15.2-15.8-2.7-6.5-4-14.5-1.7-21.1 0.4-1.1-0.7-2-1.7-1.6-1 0.4-2-0.4-1.8-1.4 0.7-4.1 2-8.4 4.8-12.3 2.8-3.9 13.4-10.5 18.2-10.9"/>
						<g id="&lt;Group&gt;" style="display: none">
							<path id="&lt;Path&gt;" class="s3" d="m23.9 220c-1.7 0.2-3.5 0.9-5 1.7-2 0.9-3.9 2-5.8 3.2-1.7 1.1-3.4 2.4-4.9 3.8-1.6 1.5-2.8 3.4-3.8 5.4-1.1 2.3-1.9 4.8-2.4 7.4-0.2 0.9-0.3 1.2 0.6 1.1 0.4-0.1 0.8-0.1 1.3 0 0.7 0.2 1.3 0.8 1.5 1.6 0.3 1-0.3 2.2-0.6 3.2q-0.4 1.7-0.5 3.5c-0.2 2.6 0 5.2 0.5 7.8 0.9 4.2 2.4 8.3 4.6 12.1 1.6 2.9 4 5.2 6.8 7.1 1.8 1.2 3.8 2.5 5.8 3.4 2.2 0.9 4.5 1.6 6.7 2.2 3.6 1 7 0.9 10.6 0.5 4.6-0.5 9.1-1.7 13.1-4.1 1.9-1.2 3.7-2.6 5.3-4.4q0.6-0.7 1.2-1.5c0.2-0.3 0.8-0.9 0.8-1.2 0-0.8-1.1-0.4-1.5-0.4q-1.1 0.1-2.1 0.2c-0.8 0.1-1.3-1.1-0.7-1.7 5.2-4.7 8.5-11 10-17.8 1.3-6.1 1.1-12.5-0.8-18.4q-0.3-1.1-0.8-2.2c-0.1-0.3-0.5-1.7-0.9-1.7-0.5-0.1-0.5 1.5-0.6 1.8q-0.2 1.1-0.6 2.1c-0.5 1.1-1.3 2.7-2.4 3.3-1 0.5-2.3 0.2-3-0.7-0.5-0.8-0.6-2.1-1-3-0.4-1.1-1-2.3-1.7-3.4-1.6-2.5-3.7-4.7-6.1-6.5-2.8-2.1-6.1-3.3-9.4-4.2-3.7-0.9-7.5-1.3-11.3-0.9-1.2 0.1-1.2-1.9 0-2 4.5-0.5 9 0.1 13.3 1.4 3.8 1.1 7.2 2.8 10.2 5.4 2.3 2 4.2 4.4 5.7 7q0.9 1.7 1.5 3.4c0.1 0.4 0.2 1.4 0.5 1.6 0.5 0.4 1.2-0.9 1.4-1.4 0.5-0.7 0.7-1.6 0.9-2.4 0.2-0.7 0.2-1.6 0.5-2.2 0.5-1.1 1.8-1.6 2.9-1.2 1.3 0.4 1.7 2.1 2.1 3.3q0.9 2.3 1.5 4.7c2.9 12.6-0.9 26.6-10.4 35.4q-0.4-0.8-0.8-1.7c1.4-0.1 3.3-0.7 4.5 0.1 0.9 0.5 1.3 1.6 1 2.6-0.3 1.2-1.4 2.3-2.2 3.2q-1.4 1.7-3 3c-4.4 3.5-9.7 5.5-15.2 6.3-4.2 0.5-8.2 0.8-12.4-0.2-5-1.2-9.7-3.2-13.9-6.2-3.1-2.1-5.6-4.7-7.5-8-2.3-4.3-4.1-9-4.8-13.9-0.4-2.7-0.5-5.5-0.1-8.3q0.1-1.2 0.4-2.3c0.1-0.5 0.7-1.5 0.6-2-0.2-0.7-0.5-0.3-1-0.2q-0.7 0.1-1.3-0.2c-2.4-1.1-0.9-4.5-0.4-6.4 0.8-2.8 1.9-5.5 3.5-7.9 2.2-3.3 5.6-5.6 8.8-7.7 3.2-2 7-4.1 10.8-4.5 1.3-0.2 1.3 1.9 0 2z"/>
						</g>
					</g>
				</g>
			</g>
			<g id="&lt;Group&gt;" style="display: none">
				<g id="&lt;Group&gt;">
					<path id="&lt;Path&gt;" class="s0" d="m266.2-268.9c0 0-79.5-4.8-143.1 6.2-39.2 6.8-72.1 8.6-92 3.1-12.3-3.3-19.6-9.5-20.3-19.1-1.6-24.9-3-106.8 6.4-142.9 9.5-36.2 58.9-16.9 123.9-2.3 65.1 14.6 58.5 18.4 75 53.7 10.9 23.4 29.4 60.4 40.6 82.6 5.7 11.2 9.5 18.7 9.5 18.7z"/>
				</g>
				<g id="&lt;Group&gt;">
					<path id="&lt;Path&gt;" class="s1" d="m266.2-268.9c0 0-79.5-4.8-143.1 6.2-39.2 6.8-72.1 8.6-92 3.1l11.2-59.3c0 0 20.2-64 47.8-65 23.8-0.8 25.2-3 71.2 5.1 0 0-51 6.8-62.9 13.7-20.8 12.1-30.3 52.3-30.3 52.3 0 0 12.2 3.1 17.4-6.1 0 0 2.5 5 1.4 9.8 0 0 54-55.7 131.8 0l8.9-7.7c0 0 20.8 23.4 29.1 29.2 5.7 11.2 9.5 18.7 9.5 18.7z"/>
				</g>
				<g id="fur">
					<g id="&lt;Group&gt;">
						<path id="&lt;Path&gt;" class="s2" d="m264.9-280.1c7.7 12.4 13.2 21.3 14.4 34.9 0.5 5.3 0.5 12.1-2.3 20.5-5.7 17.4-26.8 25.5-42.7 21.3-2-0.5-2.7-3-1.1-4.3q0.4-0.3 0.9-0.7c1.1-1.1 0.8-3.1-0.6-3.8-17.9-9.6-38.6-11.6-58.4-9.2-18.8 2.4-37 8.5-55 14.9-2.1 0.8-4-1.4-3-3.4q0.5-1 1.1-1.9c1.3-1.9-0.5-4.3-2.7-3.7q-14.2 4.3-28.5 8.6c-15.7 4.7-31.9 9.5-48.2 7.3-9.5-1.2-19.1-5.5-26.3-12.1-0.4 0.5-0.8 1-1.1 1.5-0.7 0.9-1.3 2-1.8 3-0.8 1.8-3.4 1.9-4.3 0.2-1.9-3.4-3.4-6.9-4.3-10.7-1.5-5.8-1.4-12.1 1.1-17.6 1.1-2.5 2.7-4.8 4.3-7.1 1.4-1.9-0.6-4.5-2.8-3.7q-0.4 0.2-0.8 0.3c-2 0.7-3.9-1.2-3.2-3.1 6-16.3 15.8-31.6 30.7-38.2 8.9-3.9 18.8-4.4 28.3-6.5 7.2-1.5 14.7-4.4 20-9.7 1.5-1.5 4.1-0.4 4.1 1.7q0 0.2 0 0.3c0 2 2.3 3.2 3.9 2 40.1-30.8 99.4-29.4 139.2 3.4 1.2 1 3 0.6 3.7-0.8q0.9-1.8 1.7-3.5c0.7-1.4 2.4-1.8 3.6-0.9 8.4 5.7 15.7 13.5 21.2 22.5 1.1 1.9 3.9 1.5 4.4-0.7q0 0 0.1-0.1c0.5-2.1 3.2-2.6 4.4-0.7z"/>
						<g id="&lt;Group&gt;">
							<path id="&lt;Path&gt;" class="s3" d="m261.7-279.1c-0.5 2.1-2.5 3.4-4.6 2.9-1.2-0.4-1.9-1.2-2.5-2.2q-1.3-2.1-2.7-4.1-3.1-4.3-6.7-8.1-3.4-3.6-7.2-6.6-1.2-0.9-2.3-1.8c-0.6-0.4-1.3-1.1-1.9-1.3-1.5-0.4-2.2 2.2-2.7 3.2-1.2 2.4-3.4 4-6 2.3-2.4-1.7-4.5-3.6-6.9-5.3-4.9-3.4-10.2-6.5-15.6-9.1-21.1-10.1-45.4-13.4-68.5-9.3-11.4 1.9-22.6 5.7-32.8 11.2q-3.8 2.1-7.5 4.4-2 1.3-3.9 2.7c-1 0.8-2.1 1.8-3.3 2.4-2.1 0.8-4.5-0.4-5-2.6-0.3-0.8 0-2.5-1.5-2.3-0.6 0.1-1.3 1-1.8 1.4q-0.7 0.6-1.4 1.2c-11.3 8.8-25.9 8.3-39.1 11.8-12.4 3.3-21.8 11.7-28.5 22.3-3.3 5.3-6.3 11.1-8.2 17-0.3 0.8-0.4 2 0.8 2.1 0.6 0 1.3-0.5 1.9-0.5 1.1-0.2 2.2 0.1 3.1 0.8 2.4 2.2 0.7 4.7-0.8 6.8-2.1 3.2-3.7 6.4-4.4 10.2-0.6 3.5-0.5 7.3 0.3 10.8 0.8 3.5 2.2 6.9 3.9 10.1 0.3 0.7 0.6 1.6 1.4 1.6 0.9 0.1 1.1-0.6 1.5-1.2 0.7-1.5 1.6-2.8 2.6-4.1 0.5-0.7 1.3-0.8 2-0.2q3.4 3 7.3 5.4c24.3 14.5 53.5 2.8 78.1-4.6q5.2-1.5 10.3-3.1c1.9-0.5 3.7-1.1 5.5-1.6 1.1-0.3 2.1-0.5 3.1-0.1 1.9 0.9 2.8 3.2 1.9 5.1-0.5 1-2.4 2.8-1 3.7 1.1 0.6 3.3-0.7 4.3-1 12.9-4.6 25.9-8.9 39.4-11.7 12.4-2.6 25.1-3.8 37.7-2.7 6.2 0.6 12.4 1.7 18.3 3.4q4.6 1.4 8.9 3.2 2.1 0.9 4.2 1.9c1.1 0.5 2.5 1 3.4 1.9 1.7 1.5 1.5 4-0.1 5.5-0.4 0.4-1.2 0.8-1.1 1.6 0 0.6 0.5 0.9 1 1.1 0.9 0.4 2 0.5 3 0.6 4.5 0.7 9.2 0.5 13.6-0.5 8.9-2 17.4-7.2 22.1-15.2 5.6-9.3 6-21.8 3.7-32.2-1.2-5.4-3.3-10.5-6-15.4-1.4-2.7-2.9-5.2-4.5-7.8-0.9-1.4-1.6-3.2-2.7-4.4-0.7-0.7-1.8-0.6-2.1 0.4-0.5 1.6-3 0.9-2.5-0.6 0.7-2 2.5-3.2 4.5-2.7 1.3 0.3 2 1.1 2.6 2.1q1.3 2.1 2.5 4.2c1.6 2.6 3.2 5.2 4.7 7.9 2.7 5.2 5 10.6 6.1 16.4 2.3 10.8 1.8 23.3-3.9 33.1-4.8 8.3-13.4 14-22.6 16.4-4.6 1.1-9.5 1.6-14.3 1.1-2-0.3-4.9-0.4-6.5-1.8-1.6-1.4-1.7-3.9-0.2-5.4 0.6-0.6 1.5-1 1.3-1.9-0.1-0.8-0.9-1-1.6-1.4q-2-1-4-1.9-4.7-2.1-9.6-3.6-9.7-2.9-19.8-3.6c-13.7-1-27.5 0.8-40.8 3.9-7 1.7-13.9 3.8-20.7 6q-5.1 1.7-10.2 3.4-2.7 1-5.4 2c-1.2 0.4-2.3 0.7-3.5 0.2-2.4-1.1-2.7-3.6-1.5-5.7 0.4-0.8 2.1-3.1 0-3.3-0.7-0.1-1.8 0.5-2.5 0.7q-1.4 0.4-2.8 0.8-10.6 3.2-21.2 6.4c-13.9 4.2-28.1 8.7-42.7 8.6-13.1 0-25.8-4.2-35.5-13q1-0.2 2-0.3c-1.1 1.5-2 3-2.9 4.6-0.5 0.9-1.3 1.6-2.4 1.9-3 0.8-4.3-2.1-5.4-4.3-1.6-3.2-2.8-6.6-3.5-10.1-1.4-7.2-0.3-14.3 3.5-20.6q0.8-1.2 1.7-2.5c0.4-0.6 1.3-1.4 0.8-2.2-0.6-1.4-2.4 0-3.5-0.1-2.9 0-4.2-2.9-3.3-5.3 2.1-6 4.9-11.8 8.2-17.1 6.5-10.5 15.6-19.3 27.5-23.1 13.5-4.4 29.1-3.1 40.9-12.1 1.9-1.5 3.7-4.1 6.5-3 1 0.5 1.9 1.3 2.2 2.4 0.2 1-0.1 2.8 1.5 2.4 0.7-0.1 1.5-1 2.1-1.4q0.8-0.6 1.7-1.2 1.8-1.3 3.7-2.5 3.8-2.4 7.7-4.5c10.5-5.6 21.9-9.4 33.5-11.3 23.6-4 48.2-0.6 69.8 9.7 5.5 2.6 10.8 5.7 15.8 9.2q2 1.4 3.9 2.9 0.8 0.6 1.6 1.2c0.5 0.4 1.3 1.4 2.1 1.4 1.5 0.1 2.2-3.1 2.8-4.2 0.6-1 1.4-1.6 2.6-1.9 2.6-0.6 5.4 2.4 7.3 3.9q3.9 3.2 7.4 6.9 3.5 3.8 6.5 8c1.1 1.5 2 3 3 4.5 0.7 1 2 1.1 2.3-0.2 0.4-1.6 2.9-0.9 2.5 0.6z"/>
						</g>
					</g>
				</g>
				<g id="&lt;Group&gt;">
					<path id="&lt;Path&gt;" class="s4" d="m10.4-262.9q-2.3 2.3-4.7 4.6-3.7-9.9-6.1-20.2c-2.7 1-5.2 2.5-7.3 4.4-2.5-14.4 6.8-29.9 20.6-34.6q-2.4-2.9-4.8-5.8c9.7-3.5 21.1-1.7 29.2 4.6q2.5-4.5 5-9c2.3 3.3 4 6.9 5.2 10.7 5.5-0.3 11.1 1.2 15.9 4-3.6 0.3-7.1 1.4-10.2 3.1 6 2.3 11 7.3 13.4 13.3 2.3 6.1 1.9 13.1-1.1 18.9-1-3.7-3.5-7-6.9-8.7 2.6 6.9 0.2 14.9-4.2 20.9-4.4 6-10.6 10.3-16.7 14.5-2.5-6.2-8.1-11-14.6-12.5q-0.9 2.7-1.8 5.4c-4.6-3.4-8.3-8.1-10.5-13.4"/>
				</g>
				<g id="fur ball">
					<g id="&lt;Group&gt;">
						<path id="&lt;Path&gt;" class="s2" d="m5.7-268.3l-2.3 2.3c-1.2 1-3 0.6-3.6-0.9q-2.5-7.2-4.4-14.6c-0.3-1.3-1.8-2-3-1.4q-1 0.6-2 1.2c-1.4 0.9-3.2-0.2-3.2-1.8-0.3-12.3 7.2-24.5 18.3-29.6 1.3-0.6 1.7-2.2 0.7-3.4l-0.7-0.9c-1-1.3-0.4-3.1 1.1-3.5 8.2-1.9 17.1-0.3 24.1 4.2 1.1 0.7 2.4 0.3 3.3-1.2l1.8-3.2c0.8-1.5 3-1.5 3.8 0q1.6 2.9 2.7 6c0.3 0.9 1.1 1.5 2 1.5 2.9 0 5.7 0.5 8.4 1.3 1.9 0.6 1.9 3.3 0 3.9q0 0.1-0.1 0.1c-1.6 0.5-1.8 2.8-0.4 3.7 4.4 2.6 7.8 6.7 9.6 11.4 1.7 4.4 2 9.3 0.8 13.9-0.4 1.8-2.7 2.3-3.8 0.8q0-0.1 0-0.1c-1.2-1.8-3.9-0.8-3.9 1.3 0.1 5.4-2 10.8-5.2 15.2-3.9 5.3-9.3 9.3-14.7 13-1 0.8-2.5 0.4-3.1-0.7-2.5-4.5-6.7-8.1-11.6-9.7-1-0.4-2.2 0.2-2.6 1.3l-0.1 0.5c-0.5 1.5-2.4 2-3.5 1-3.5-3.2-6.3-7.1-8-11.4"/>
						<g id="&lt;Group&gt;">
							<path id="&lt;Path&gt;" class="s3" d="m7-268.4c0.9 2.2 2.1 4.3 3.5 6.2q1.2 1.6 2.5 3c0.6 0.6 1.5 1.9 2.4 2 0.8 0.1 1.1-0.6 1.4-1.3 0.3-0.8 0.8-1.4 1.6-1.8 1.8-0.9 3.9 0.4 5.5 1.2 1.9 1.1 3.7 2.4 5.2 4q1.2 1.2 2.2 2.5c0.6 0.8 1 2 1.7 2.6 1 0.9 2.4-0.6 3.3-1.2q1.4-0.9 2.8-2c3.9-3 7.8-6.4 10.6-10.6 1.4-2.1 2.5-4.4 3.2-6.8 0.7-2.3 0.8-4.5 1-6.9 0.1-1.6 1.3-2.8 2.8-3 0.8-0.1 1.6 0.1 2.2 0.6 0.6 0.4 0.9 1.3 1.7 1.3 1.1-0.1 1.2-1.4 1.3-2.3q0.4-1.9 0.4-3.9c0-2.6-0.4-5.2-1.3-7.7-1.5-4.3-4.5-8.1-8.3-10.6-1.4-1-2.8-2-2.4-3.9 0.2-0.8 0.6-1.5 1.3-1.9 0.6-0.4 1.5-0.5 1.5-1.3 0.1-1.2-1.4-1.3-2.2-1.6q-2.1-0.5-4.2-0.7c-2.1-0.2-4.3 0.2-5.3-2.1-0.6-1.2-0.9-2.4-1.5-3.6-0.4-0.9-0.8-2.4-1.7-2.9-1.2-0.7-1.9 1.2-2.4 2-0.6 1.1-1.1 2.3-2.1 3.1-1.8 1.3-3.2 0.3-4.9-0.7-4.1-2.3-8.8-3.7-13.6-3.9-2.4-0.2-4.8 0-7.1 0.4-0.9 0.2-2.4 0.4-2.1 1.7 0.2 0.5 0.7 0.9 1 1.4 1.1 1.4 1.1 3.4-0.4 4.6-0.8 0.6-1.8 0.9-2.7 1.4q-1.3 0.7-2.6 1.6c-3.5 2.5-6.4 5.7-8.6 9.3-2.2 3.7-3.7 7.8-4.3 12-0.1 1.2-1.1 5.7 0.9 5.8 1 0 2.1-1.2 3.1-1.5 0.7-0.3 1.5-0.2 2.2 0.1 2 0.9 2.2 3.4 2.7 5.3q1.1 4 2.4 8c0.4 1.3 1 5.3 3.1 3.6 0.7-0.6 1.4-1.4 2.2-2.1 0.9-0.9 2.3 0.5 1.4 1.4-0.8 0.8-1.5 1.5-2.3 2.2-1.2 1.1-3 1.3-4.3 0.2-0.9-0.8-1.2-2.1-1.5-3.2q-0.7-2-1.4-4.1-0.7-2.3-1.3-4.5c-0.4-1.4-0.6-2.9-1.1-4.2-0.7-1.5-1.9-0.7-3 0-0.8 0.5-1.6 0.9-2.6 0.8-2.2-0.4-2.8-2.3-2.7-4.2 0-2.3 0.3-4.6 0.8-6.8 1-4.5 3-8.7 5.7-12.4 2.7-3.6 6.1-6.7 10.1-9 0.8-0.4 2.7-0.9 2.9-1.9 0.3-0.8-0.5-1.4-0.9-2-1.1-1.3-1.1-3.2 0.2-4.4 0.8-0.8 1.9-0.9 3-1.1q1.7-0.3 3.5-0.4c2.6-0.2 5.1 0 7.7 0.4q3.8 0.7 7.3 2.2 1.8 0.7 3.5 1.7c1 0.6 1.8 1.5 2.8 0.4 1.6-1.8 1.9-5.6 5.2-5.3 2.3 0.2 3.2 2.9 4 4.8q0.4 0.9 0.8 1.8c0.2 0.6 0.3 1.4 0.9 1.8 0.6 0.3 1.4 0.2 2 0.2q1.1 0.1 2.2 0.2 2.2 0.3 4.4 1c0.9 0.2 1.7 0.5 2.3 1.3 0.9 1.3 0.7 3.2-0.6 4.2-0.7 0.5-1.9 0.6-1.7 1.7 0.1 0.9 1.7 1.5 2.4 2q2.8 2.2 5 5.1c3 4.1 4.6 9.1 4.6 14.1q0 2.1-0.4 4.2c-0.1 1.1-0.3 2.2-0.9 3-1.1 1.3-3.2 1.6-4.5 0.4-0.6-0.5-0.9-1.4-1.8-1-1.1 0.4-0.8 1.7-0.8 2.6-0.1 2.5-0.7 5-1.6 7.3-1.9 5-5.2 9.2-9.1 12.8-1.9 1.7-3.9 3.3-6 4.9q-1.6 1.2-3.3 2.4c-0.9 0.5-1.7 0.9-2.7 0.7-1.1-0.3-1.8-1-2.4-1.9-0.6-1.1-1.2-2.1-2-3-1.6-1.9-3.6-3.5-5.8-4.7-0.9-0.4-2.4-1.5-3.5-1.3-0.9 0.2-0.9 1.2-1.3 1.8-0.9 1.5-2.9 2-4.4 1.1-2-1.2-3.6-3.6-5-5.4-1.5-2.1-2.7-4.4-3.7-6.8-0.5-1.2 1.4-1.7 1.9-0.5z"/>
						</g>
					</g>
				</g>
			</g>
			<g id="&lt;Group&gt;" style="display: none">
				<g id="&lt;Group&gt;">
					<path id="&lt;Path&gt;" class="s1" d="m584.7 88.5c-0.5-1.3-0.8-2.7-0.9-4.1-0.5-7.6 2.1-8.6 5.2-7.4 2.5 1 5.3 3.5 6.7 4.8 0.5 0.5 0.8 0.9 0.8 0.9 0 0 0.5 0.2 1.1 0.6 3.4 2 13.8 8.5 17.5 15.3 4 7.4-24.5 3.2-30.4-10.1z"/>
				</g>
				<g id="&lt;Group&gt;">
					<path id="&lt;Path&gt;" class="s0" d="m655.2 227.6c0.1 0.6-2.6 1-7.5 1.2-5.5 0.3-13.8 0.4-24 0.2-34.4-0.4-90-2.7-130.7-4.5-24.2-1.1-43.1-2.1-49.2-2.4-1.3 0-2-0.1-2-0.1v-13c0 0 14.3-15.3 17.9-19.8 3.6-4.6-1.3-9.2-4.6-13.1-3.2-3.9 6.8-11 22.8-53.3 6.4-16.9 10.9-25.7 14.7-31.5q0-0.1 0-0.1c5.8-8.7 10-10.8 16.8-23.7 11.4-21.5 11.8-30 18.6-32.6 6.8-2.6 13.3-5.8 19.9-8.4 6.5-2.6-3.3-12.4-7.9-22.2-3.7-8.1 14.9-33.6 26.1-53.1 2.4-4 4.4-7.7 5.8-11 8.5-19.2 17.3-33.2 18.9-38.4 1.6-5.2 13.3 1.6 16.3 2 2.9 0.3 2.2 134.7 2.2 159.8 0 24.9 3.3 15.4-21.6 19.1q-0.2 0-0.5 0c0 0-2.1 3.2 8.3 8.5q2.6 1.4 6.4 2.9c8.6 3.6 11 3 12.6 4q0.3 0.2 0.6 0.5c1.3 1.4 2.4 4.6 7.3 13.8 11 20.8 20.8 44.5 27.3 69.6 5.8 22.4 4.9 36.8 5.3 43.5q0.1 1.2 0.2 2.1z"/>
				</g>
				<path id="&lt;Path&gt;" class="s5" d="m595.5 91.2c4.3 3.4 10.6 6.5 19 6.9-1.6-1-4-0.4-12.6-4q-3.8-1.5-6.4-2.9z"/>
				<g id="&lt;Group&gt;">
					<path id="&lt;Path&gt;" class="s1" d="m598 81.7q-1.1 0-2.3 0.1c-2.3 0.2-4.9 0.4-8 0.9 0.1-0.5 0.6-2.5 1.3-5.7 0.8-3.8 2-9.3 3.2-15.6q0-0.1 0-0.1 0.5-2.9 1.1-5.9c3.5-19.4 6.9-43.4 3.8-52.2-5.6-15.6-29.2-56.9-29.2-56.9l1.3-0.6c2.4-4 1.3-2.2 2.7-5.5 8.5-19.2 17.3-33.2 18.9-38.4 1.6-5.2 13.3 1.6 16.3 2 2.9 0.3 2.2 134.7 2.2 159.8 0 20.7 2.3 17.6-11.3 18.1z"/>
				</g>
				<g id="&lt;Group&gt;">
					<path id="&lt;Path&gt;" class="s1" d="m578.3-57.2l4.8 15.4c-5.7 0.1-15.8-2.5-15.8-2.5l2.6-5.1c-0.6-1.3-1.8-3.9-1.8-3.9z"/>
				</g>
				<g id="&lt;Group&gt;">
					<path id="&lt;Path&gt;" class="s1" d="m655 225.5l-7.3 3.3-15.4 7c0 0-3.5-2.7-8.6-6.8-11.6-9.2-31.1-25.1-32.4-28.7-1.7-5.2 33.9-9.2 33.9-9.2 0 0 10.4-2.2 6.1-16.9-4.1-14-15.1-69.8-16.2-75.6 1.3 1.4 2.4 4.6 7.3 13.8 11 20.8 20.8 44.5 27.3 69.6 5.8 22.4 4.9 36.8 5.3 43.5z"/>
				</g>
				<g id="&lt;Group&gt;">
					<path id="&lt;Path&gt;" class="s1" d="m625.2 191.1c0 0-70.2 28.2-132.2 33.4-17.7 1.5-34.6 1.1-49.2-2.4q-1-0.2-2-0.5v-12.6c0 0 14.3-15.3 17.9-19.8 3.6-4.6-1.3-9.2-4.6-13.1-3.2-3.9 6.8-11 22.8-53.3 6.4-16.9 10.9-25.7 14.7-31.5-0.3 1.9-23.6 87.5-23.6 93.5 0 6.1 86.4-54.9 156.2 6.3z"/>
				</g>
				<g id="fur ball 3 ">
					<g id="&lt;Group&gt;">
						<path id="&lt;Path&gt;" class="s2" d="m599.9-46.6q-1.4 0.1-3 0.2-0.2 0-0.4 0.1c-2.8 1-5.9 1.6-9 1.7-4.5 0.2-9-0.3-13.5-1-1.4-0.3-1.8-1.9-0.9-2.8q0.1 0 0.1-0.1c0.8-0.8 0.6-2.2-0.5-2.6-4.3-1.9-7.2-4.1-11.9-8.2-7.1-6.3-12.1-15.6-10.8-24.3 0.2-1.2 1.7-1.7 2.6-1q0.1 0.1 0.2 0.2c1.1 0.9 2.7 0 2.6-1.4-1.1-15.2 8.3-30.7 23.2-38.6 2.1-1.2 4.4 1.1 3.4 3.3-0.4 0.9-0.7 1.8-0.9 2.9-0.2 2 1.9 3.5 3.7 2.5 5.1-3 15-5.6 22.1-4.9 1.5 0.2 4.5 0.5 7.2 0.8q0.2 0 0.3 0c7.1 1.4 11.6 3.4 18.8 6.7-2.3 0.1-4.7-0.5-5.6 0.5 1 0.7 1.6 1.3 2.5 2l2.9 2.8c4.8 3.9 10.6 17.4 10.4 23.1-0.2 5.8-2.4 10.7-5 15.1-0.6 1-2.1 1-2.7 0q-0.2-0.3-0.4-0.6c-0.7-1.1-2.4-0.9-2.9 0.3-2.2 6.3-7.6 11.7-13.8 15.7q-0.1 0-0.2 0.1-2.3 1.9-4.7 3.6c-2.8 2-5.9 4.1-7.8 6.6-1.3 1.6-4 0.9-4.3-1.2q0-0.1 0-0.2c-0.1-0.8-0.9-1.4-1.7-1.3z"/>
						<g id="&lt;Group&gt;">
							<path id="&lt;Path&gt;" class="s3" d="m602.6-45.3c0.1 0.7 0.7 1.3 1.4 1.3 0.9 0 1.4-0.9 1.9-1.5 1.5-1.6 3.2-3 5-4.2 1.9-1.4 3.9-2.8 5.7-4.3 1.7-1.3 3.5-2.4 5.2-3.7 2.9-2.4 5.6-5.1 7.6-8.2 0.9-1.5 1.5-3.1 2.2-4.6 0.6-1.1 2-1.7 3.2-1.3 0.7 0.3 1.1 0.7 1.4 1.3 0.8 1 1.2 0.6 1.8-0.3 1-1.7 1.9-3.5 2.6-5.3 1.2-3.2 2.1-6.8 1.7-10.2-0.3-2.6-1.1-5.2-2.1-7.7-1.1-2.9-2.5-5.7-4.1-8.4-1.1-1.8-2.4-3.4-4-4.9-1.6-1.5-3.2-3.2-5-4.4-0.5-0.4-0.7-1.1-0.2-1.6 1.6-1.5 4.3-0.8 6.3-0.8q-0.3 0.9-0.5 1.8-2.6-1.2-5.2-2.3c-3.1-1.3-6.3-2.5-9.6-3.4-3.4-0.9-6.9-1.2-10.3-1.5-6.3-0.6-12.7 0.6-18.5 2.8-1.3 0.6-2.6 1.2-3.8 1.9-1.1 0.5-2.4 0.6-3.5-0.1-1-0.6-1.7-1.8-1.7-3 0-0.9 0.3-1.9 0.6-2.7 0.2-0.7 0.7-1.4 0.4-2.2-0.7-1.9-2.8-0.4-3.9 0.3q-2.1 1.2-4 2.7c-2.6 1.9-5 4.2-7.2 6.6-4 4.8-7.1 10.5-8.6 16.6-0.8 2.9-1.1 5.9-1.1 8.8 0.1 1.4 0.4 2.8-0.6 3.9-0.8 0.9-2.1 1.1-3.1 0.5-0.6-0.3-1.1-0.9-1.6-0.1-0.3 0.6-0.2 1.8-0.2 2.5q0 2.4 0.5 4.7c0.8 3.3 2.2 6.4 4.1 9.2 1.9 2.9 4.2 5.4 6.8 7.7 2.5 2.2 5.1 4.3 8 5.9 1.1 0.7 2.8 1.1 3.7 2 0.9 0.9 1 2.3 0.4 3.3-0.3 0.4-1 0.9-0.5 1.4 0.5 0.5 2 0.4 2.6 0.5 2.2 0.3 4.3 0.6 6.5 0.7 4 0.2 8 0 11.8-1.2 1.8-0.5 3.5-0.9 5.3-0.8 1.3 0 2.3 0.8 2.6 2 0.2 1.3-1.7 1.8-2 0.6-0.2-1-1.6-0.5-2.4-0.5-1 0.1-1.8 0.3-2.7 0.6-3.9 1.2-8.1 1.5-12.1 1.3-2.1-0.1-4.1-0.3-6.2-0.6-1.5-0.2-3.7-0.1-4.8-1.2-0.8-0.8-1-2.2-0.4-3.2 0.3-0.5 1.1-1 0.4-1.6-0.6-0.4-1.5-0.7-2.1-1-2.9-1.4-5.4-3.3-7.8-5.3-5.4-4.6-10-9.9-12.4-16.7-1-3.1-1.5-6.4-1.2-9.7 0.2-1.2 0.5-2.5 1.9-2.9 0.6-0.2 1.2-0.2 1.8 0.1 0.5 0.2 1.1 1 1.6 0.5 0.5-0.4 0.2-1.8 0.1-2.4q0-1 0.1-2.1 0.1-2.4 0.5-4.7c0.5-3 1.4-6 2.6-8.8 2.5-5.9 6.4-11.2 11.2-15.5 2.5-2.3 5.3-4.3 8.2-5.9 1.2-0.8 2.5-1.4 4-0.9 1.2 0.4 2.1 1.4 2.3 2.6 0.3 1.7-1 3.1-1.1 4.8 0 0.8 0.4 1.6 1.3 1.7 0.7 0.1 1.3-0.4 1.9-0.7 2.7-1.5 5.6-2.4 8.6-3.2 3.2-0.8 6.5-1.3 9.8-1.4 3.3-0.1 6.5 0.5 9.8 0.8 7 0.7 13.9 4 20.2 6.9 1 0.5 0.4 1.8-0.5 1.9-0.9 0-1.8-0.1-2.7-0.1-0.6 0-1.7-0.2-2.1 0.3q-0.1-0.8-0.2-1.6c2.1 1.5 3.8 3.4 5.7 5.2 2.4 2.1 4.1 4.9 5.5 7.7 2.8 5.3 5.6 11.8 4.9 17.9-0.5 4.3-2.1 8.3-4.1 12-0.8 1.4-1.6 3.1-3.5 2.8-0.8-0.1-1.4-0.5-1.9-1.1-0.5-0.8-1-1.3-1.5-0.2-0.9 1.7-1.6 3.4-2.7 5.1q-1.7 2.5-3.9 4.6c-2.9 3-6.4 5.3-9.8 7.8-3.5 2.8-7.3 5.1-10.3 8.5-2.2 2.3-5.6 0.9-6-2.1-0.2-1.3 1.8-1.2 2 0z"/>
						</g>
					</g>
				</g>
				<g id="fur 3 ">
					<g id="&lt;Group&gt;">
						<path id="&lt;Path&gt;" class="s2" d="m681.6 255.3c1.9-0.4 3.1 1.9 1.7 3.2-5.2 4.8-12.3 7.9-19.7 9.4-9.5 2-19.4 1.7-29.2 1.4q-23.6-0.7-47.2-1.4c-1.4-0.1-2.3 1.4-1.7 2.7 1.1 2 1.7 4.1 1.8 6.2 0 1.5-1.5 2.5-2.7 1.8-15.1-8-33.9-9.3-51.5-7.5-18.6 1.8-36.7 6.6-55.2 8.7-11.6 1.3-25.6 0.4-32.6-6.9-1.1-1.2-3-0.7-3.3 0.9l-0.6 3.8c-0.2 1.5-2 2.1-3.1 1-7.1-7-12-15.7-14.2-24.9-0.4-1.7-2.7-1.9-3.5-0.4l-0.9 1.8c-0.7 1.4-2.8 1.4-3.4-0.1-4.2-10-5.6-23.2-1.3-32.7q0-0.1 0.1-0.3l4.2-6.4q0.1-0.3 0.3-0.5c7-6.1 18.3-11.2 28.8-13.8 2-0.5 3.2 2 1.6 3.3-1.3 1-2.6 2-3.6 3.1-0.4 0.5 0.1 1.1 0.7 1 12.2-1.7 18.9-6.1 30.4-11.3 42.4-19.3 93.5-18.7 140-8 1.9 0.4 2 3 0.2 3.6q-0.1 0-0.2 0c-1.8 0.6-1.5 3.3 0.3 3.6 28 4.5 54.4 23.4 67.8 45.4 0.7 1.3-0.1 2.8-1.5 2.9-10.1 0.7-16.9 4.6-13.8 10 1.2 2.1 6.9 1.3 11.3 0.4z"/>
						<g id="&lt;Group&gt;">
							<path id="&lt;Path&gt;" class="s3" d="m669.4 255.4c-1.8-3.3-0.4-6.4 2.6-8.3 2-1.3 4.3-2 6.6-2.5q2.1-0.4 4.3-0.6c0.6-0.1 1.6 0.1 1.9-0.7 0.2-0.6-0.4-1.3-0.7-1.8-2.9-4.6-6.3-8.9-10-12.9-7.7-8.4-17-15.4-27-20.9-5.3-2.8-10.7-5.1-16.3-6.9q-4.1-1.4-8.4-2.3-2.2-0.5-4.4-0.9c-0.9-0.1-1.7-0.4-2.2-1.2-1.1-1.7-0.3-3.5 1.3-4.3 1.3-0.6 0.9-1.6-0.3-1.9-1.5-0.4-3.1-0.7-4.6-1q-9.3-2-18.7-3.3c-25.1-3.7-51-4.2-76 0.3-12.2 2.2-24.1 5.5-35.5 10.3-11 4.6-21.1 10.9-32.9 12.9-1.1 0.2-2.6 0.7-3.4-0.3-0.7-0.7-0.4-1.6 0.2-2.3 0.5-0.6 1.2-1.2 1.9-1.7 0.5-0.4 1.4-0.9 1.8-1.4 0.3-0.5 0.2-1.1-0.3-1.3-0.5-0.4-1.2 0-1.7 0.1-6.1 1.7-12.1 3.9-17.7 6.9-2.5 1.4-5 2.9-7.3 4.6-1.3 1-2.4 1.9-3.3 3.3-1.8 2.9-3.7 5.5-4.6 8.8-1.7 5.7-1.6 11.8-0.6 17.7q0.8 4.3 2.3 8.5c0.3 0.9 1 3.9 2.3 2.5 0.4-0.5 0.6-1.2 0.9-1.7 0.8-1.5 2.6-2.3 4.2-1.4 1 0.6 1.2 1.7 1.5 2.8q0.5 2 1.2 4c2.1 5.7 5.2 11 9.1 15.7q0.8 1 1.8 2c0.5 0.6 1 1.3 1.6 1.7 0.8 0.5 1.3 0.1 1.5-0.8 0.3-1.3 0.2-2.6 0.6-3.9 0.6-1.9 3.1-2.5 4.6-1.3 1 0.9 1.9 1.8 3 2.6q1.3 0.9 2.8 1.6c10.4 4.9 23.1 3.3 34.1 1.7 26.2-4 52.5-11.6 79-6.9 6 1 11.8 2.7 17.2 5.2 0.9 0.4 3.5 2.3 4.3 1.4 0.7-1-0.2-3.5-0.6-4.5-0.4-1.2-1.4-2.4-1.1-3.8 0.1-0.9 0.8-1.7 1.6-2.1 1.4-0.6 3.3-0.2 4.7-0.1q2.5 0 5.1 0.1 5.3 0.2 10.7 0.4 10.7 0.3 21.4 0.6c13.6 0.4 27.9 1.7 41-2.6 3-1 5.8-2.3 8.4-3.8q2.1-1.3 4-2.8c0.5-0.4 2.7-2.1 1-2.6-0.6-0.2-1.5 0.2-2 0.3q-1 0.2-2.1 0.3c-1.3 0.2-2.5 0.3-3.8 0.3-1.8 0-3.9-0.2-5-1.8-0.7-1.1 1.1-2.1 1.8-1 1 1.6 5 0.8 6.5 0.6 2-0.3 4.8-1.6 6.5 0.2 1.8 2.1-0.2 4.1-1.9 5.4-2.3 1.9-4.8 3.4-7.5 4.7-5.9 2.7-12.3 4.1-18.8 4.8-7 0.7-14.1 0.5-21.1 0.2q-11.1-0.3-22.2-0.7-11.2-0.3-22.3-0.6c-0.9-0.1-2.3-0.4-3.2-0.1-1 0.2-0.9 0.8-0.6 1.6 0.6 1.4 1.1 2.6 1.4 4 0.4 2.1 0.4 5.2-2.5 5.3-1.3 0-2.7-1-3.8-1.6q-2.2-1-4.4-1.8-4.3-1.6-8.9-2.7c-6.3-1.5-12.9-2.2-19.4-2.3-13.9-0.3-27.6 2-41.2 4.5-7.1 1.3-14.2 2.7-21.4 3.8-6.1 0.9-12.2 1.7-18.4 1.6-5.4-0.1-11-0.8-16.1-2.9-2.2-0.9-4.3-2.1-6.1-3.6-0.8-0.7-2.3-2.6-2.8-0.7-0.2 0.5-0.2 1.1-0.3 1.6-0.2 1.5-0.2 3.2-1.6 4.1-2.4 1.4-4.3-1.2-5.7-2.8-4.1-4.6-7.4-9.7-9.8-15.3q-0.9-2.2-1.6-4.4-0.3-1-0.6-2.1c-0.1-0.5-0.1-1.4-0.7-1.8-1.2-0.8-2.1 2.5-2.9 3.1-2 1.5-3.9 0.1-4.7-1.8q-1.7-4.2-2.6-8.6c-1.3-6-1.6-12.2-0.4-18.1 0.5-2.2 1.1-4.6 2.2-6.6 0.8-1.2 1.6-2.4 2.4-3.7 0.6-1 1.2-2.2 2-3.1 1.7-1.9 4.3-3.4 6.4-4.7 5.4-3.4 11.3-5.9 17.3-7.9q2.2-0.7 4.4-1.3c1.1-0.3 2.2-0.7 3.3-0.2 1.9 0.9 2.1 3.4 0.6 4.8-0.7 0.6-1.5 1.2-2.3 1.8-0.2 0.2-0.4 0.5-0.6 0.7q-0.4 0.7-0.5-0.1 0.3 0 0.5-0.1c0.6-0.3 1.7-0.2 2.4-0.4q1.1-0.2 2.2-0.5 4.1-1 8-2.5c5.8-2.3 11.3-5.3 17-7.8q8.5-3.9 17.5-6.7c12.2-3.9 24.9-6.3 37.7-7.6 25.9-2.6 52.3-0.5 77.8 4.7q2.5 0.5 5.1 1.1c1.1 0.2 2.6 0.3 3.5 1.1 1.4 1.2 1.2 3.6-0.3 4.6-0.5 0.3-2.2 0.9-1.1 1.8 0.4 0.4 1.3 0.4 1.8 0.5q1 0.1 2.1 0.4 4.4 0.9 8.8 2.2c11.2 3.5 21.8 9.1 31.2 16.1 9.1 6.9 17.2 15.1 23.5 24.6 1.1 1.8 3 4.3 0.7 6.1-1 0.8-2.5 0.6-3.7 0.8q-2.1 0.2-4.1 0.7c-3.3 0.9-9.1 3.2-6.7 7.6 0.6 1.1-1.1 2.1-1.8 1z"/>
						</g>
					</g>
				</g>
				<g id="&lt;Group&gt;">
					<path id="&lt;Path&gt;" class="s1" d="m601.8 58.4l-2.2 10.4c0 0-0.3 6.9-1.6 12.9q-1.1 0-2.3 0.1c0.5 0.5 0.8 0.9 0.8 0.9 0 0 0.5 0.2 1.1 0.6-1.1 4.2-2.8 7.5-5.4 6.8-1.8-0.4-4.5-1-7.5-1.6-7.7-1.7-17.3-3.8-16.8-5.8 0.6-2.8 8.4-7.7 16.6-11.4 4.4-2 6.6-6.3 7.7-9.9q0-0.1 0-0.1c1-3.3 1.1-5.9 1.1-5.9z"/>
				</g>
			</g>
			<g id="&lt;Group&gt;" style="display: none">
				<g id="&lt;Group&gt;">
					<path id="&lt;Path&gt;" class="s0" d="m683.6-255l-1.9 13.5-47.2 3.9-188.2-10.2-1.9-14.1c0 0 2.2-36.4 8.2-55.8 6.1-19.3 10.5-14.3 24.9-24.8 0 0 3.9-3 3.9-15.7 0-12.7-1.7-8.6 4.6-19.1 2-3.1 5.4-7.8 9.7-12.9 9.7-11.9 23.4-26.7 31.5-34 11.5-10.5 39.6-25.3 51.3-32.5 5.7-3.5 44.1 8.6 50.2 13 22 15.9 17.8 36.2 16.4 50.7-0.4 3.4-0.7 5.9-0.7 7.2 0 6.6-7.7 5.8-15.7 11.6-8 5.8 13 25.6 18 37.8 4.9 12.1 35.8 36.1 36.9 81.4z"/>
				</g>
				<g id="&lt;Group&gt;">
					<path id="&lt;Path&gt;" class="s1" d="m683.6-255l-1.9 13.5-47.2 3.9-188.2-10.2-1.9-14.1c0 0 2.2-36.4 8.2-55.8 6.1-19.3 10.5-14.3 24.9-24.8 0 0 3.1-2.4 3.7-12.2q0.1-1.6 0.2-3.5c0-12.7-1.7-8.6 4.6-19.1 2-3.1 5.4-7.8 9.7-12.9 28.9 9.6 25.1 8 28.7 22.9q0.4 1.5 0.7 3c3.7 14.3 9.5 30.9 9.5 30.9l30.9 14.4c0 0 6.6-5 10.4-24.1 3.7-19.2 32.9-41.1 37.4-52.4 2.5-6.4 7.6-18.4 12.2-26.8 3.5-6.4 6.7-10.7 8.2-8.8 1.8 2.5 7.1 21.7 11.4 38.1-0.4 3.4-0.7 5.9-0.7 7.2 0 6.6-7.7 5.8-15.7 11.6-2.7 1.9-2.1 5.5 0.1 9.9 2.8 5.5 8 12.1 12.2 18.2 2.4 3.5 4.5 6.8 5.7 9.7 1.5 3.7 5.4 8.5 10.2 14.8 10.9 14.1 26 35.2 26.7 66.6z"/>
				</g>
				<g id="fur 1 ">
					<g id="&lt;Group&gt;">
						<g id="&lt;Group&gt;">
							<path id="&lt;Path&gt;" class="s2" d="m683.6-257.8c6.5 12.6 11.2 21.7 11.2 34.9 0.1 5.2-0.4 11.7-3.7 19.7-7 16.4-28 22.6-43.2 17.4-1.8-0.6-2.3-3.1-0.7-4.3q0.5-0.2 0.9-0.6c1.2-1 1-2.9-0.3-3.8-16.6-10.6-36.6-14.2-55.9-13.3-18.4 0.8-36.5 5.4-54.5 10.2-2.1 0.6-3.8-1.8-2.6-3.6q0.5-0.8 1.1-1.6c1.4-1.8-0.1-4.3-2.3-3.8q-14.2 3-28.3 6.1c-15.6 3.4-31.7 6.8-47.3 3.4-7.9-1.7-15.7-5.5-21.9-11.1-2.2 0.3-3.2 0.5-5.5 0.8q-0.2 0.3-0.4 0.7c-0.9 1.7-3.4 1.5-4.2-0.2-1.6-3.4-2.8-7-3.4-10.6-0.9-5.8-0.3-12 2.5-17.1 1.2-2.3 2.9-4.4 4.6-6.5 1.5-1.8-0.2-4.4-2.4-3.8l-0.7 0.2c-2 0.5-3.7-1.5-2.8-3.3 7-15.3 17.7-29.4 32.6-34.6 9-3.2 18.6-2.9 27.9-4.2 7.2-1 14.6-3.2 20.1-7.8 1.7-1.4 4.2-0.2 4 2v0.1c-0.2 2 2 3.3 3.6 2.3 41.3-26.8 98.7-20.9 134.8 13.9 1.1 1.1 2.9 0.9 3.7-0.5q0.9-1.6 1.9-3.1c0.7-1.3 2.5-1.6 3.6-0.7 7.7 6.3 14.1 14.3 18.7 23.5 1 1.8 3.8 1.6 4.4-0.4 0.7-2 3.5-2.2 4.5-0.3z"/>
							<g id="&lt;Group&gt;">
								<path id="&lt;Path&gt;" class="s3" d="m680.4-257.1c-0.6 1.7-2.4 2.8-4.2 2.5-2.5-0.5-3.3-3.3-4.4-5.3-3.1-5.5-7-10.6-11.5-15.1q-1.7-1.7-3.5-3.3c-1.1-0.9-2.3-2.4-3.5-0.7-1.4 2-2.3 5.2-5.5 4.6-1.3-0.2-2.1-1.1-3-2q-1.4-1.3-2.8-2.5-3.2-2.9-6.7-5.4-6.6-4.8-13.8-8.7c-19-10-40.9-14.2-62.3-12.2-10.6 1.1-21.2 3.7-31 7.8-5 2.1-9.8 4.6-14.3 7.5-2 1.2-4.2 2.1-5.9 0-0.8-0.9-0.8-1.7-0.9-2.7-0.1-1.4-1.1-1.6-2.1-0.8-5 3.6-10.2 5.9-16.2 7.1-6.5 1.4-13.2 1.5-19.7 2.3-6.5 0.7-12.7 2.2-18.4 5.4-4.9 2.7-9.1 6.4-12.8 10.6-3.9 4.3-7.1 9.2-9.9 14.3q-1.1 2-2.1 4.1c-0.4 0.8-1.8 2.8-0.6 3.5 0.8 0.5 1.9-0.2 2.7-0.2 1 0.1 2 0.5 2.6 1.2 1.8 2 0.7 4.1-0.7 5.8-2.2 2.7-4.1 5.5-5.2 8.8-2.1 6.5-1.2 13.4 1.1 19.7 0.4 1.1 0.9 3.8 2.2 4 1.2 0.1 1.3-1.5 2.3-1.8 1.2-0.5 3-0.5 4.4-0.7 1.6-0.2 1.9-0.1 3.2 0.9 4.8 4.2 10.7 7.3 16.8 9.2 13.8 4.1 28.6 1.9 42.4-0.9 7.2-1.4 14.3-3 21.4-4.6q5.4-1.1 10.7-2.3c2.4-0.5 5.6-1.9 7.6 0.2 0.7 0.8 1 1.9 0.9 2.9-0.1 1.3-1 2.1-1.7 3.1-0.3 0.6-0.5 1.1 0 1.7 0.5 0.6 1.3 0.2 2 0.1q2.5-0.7 5.1-1.4c7-1.8 14-3.6 21-5 25.6-5.2 53-6.2 76.9 5.6q2.2 1.1 4.4 2.4c1.2 0.7 2.6 1.3 3.6 2.3 1.8 1.7 1.3 4.3-0.6 5.7-2.8 2.2 2 3.1 3.6 3.4q3.3 0.7 6.7 0.7c9.5 0.1 19.2-3.3 25.8-10.3 7.7-8 9.7-20.4 8.9-31.2-0.5-6-2.2-11.8-4.6-17.4-1.2-2.8-2.5-5.5-3.9-8.3q-0.7-1.2-1.3-2.5c-0.4-0.7-0.7-1.7-1.2-2.3-0.8-0.9-1.7-0.5-2.2 0.5-0.6 1.5-2.8 0.2-2.2-1.3 0.8-1.8 2.8-2.7 4.7-2.1 1.1 0.4 1.7 1.3 2.3 2.3q1 2.1 2.1 4.2c1.4 2.7 2.7 5.4 3.9 8.2 2.3 5.4 4.1 10.9 4.7 16.6 1.3 10.6-0.2 22.8-6.5 31.6-5.3 7.6-13.9 12.3-22.9 14-4.5 0.8-9.1 0.8-13.6 0.1-2-0.4-4.6-0.7-6.2-1.9-1.7-1.2-2.1-3.7-0.7-5.3 0.8-1 2.7-1.8 1.2-3.1-1.2-0.9-2.8-1.7-4.1-2.4q-4.2-2.3-8.6-4.1c-5.8-2.3-11.9-4-18-5.1-13-2.3-26.3-1.9-39.3 0-7.1 1-14 2.4-20.9 4.1q-5.2 1.2-10.2 2.5-2.7 0.7-5.4 1.4c-1.4 0.4-2.8 1-4.2 0.9-2-0.3-3.5-2.3-3.1-4.3 0.2-1.4 1.4-2.1 1.9-3.3 0.7-1.8-1.4-1.6-2.4-1.3q-10.6 2.3-21.2 4.6c-13.6 2.9-27.4 6.3-41.4 6-12.9-0.2-25.2-4.2-34.9-12.8q0.6 0.2 1.3 0.3-2.8 0.4-5.5 0.8 0.3-0.3 0.7-0.6c-1.1 1.9-3 3.3-5.3 2.1-1.2-0.6-1.6-1.8-2.1-3q-1.1-2.4-1.8-4.9c-1-3.4-1.6-6.9-1.6-10.4 0.1-3.4 0.7-6.8 2-10 1.3-3.1 3.3-5.7 5.4-8.3 0.5-0.6 1.1-1.3 0.4-2.1-0.4-0.3-0.7-0.3-1.2-0.2-1 0-1.8 0.4-2.8 0-1.1-0.4-2-1.4-2.3-2.5-0.3-1.3 0.2-2.4 0.7-3.5 2.6-5.6 5.8-11 9.5-16 7.5-9.8 17.2-17.4 29.4-19.9 13.5-2.8 28.7-0.6 40.4-9.1 1-0.8 2-1.8 3.4-1.9 1 0 2 0.3 2.8 1 0.9 0.9 0.9 1.8 1.1 3 0.2 1.7 1.3 1.4 2.5 0.6 4.9-3.1 10.1-5.7 15.4-8 10.6-4.4 21.8-7 33.2-8 22.8-1.8 46.2 3.4 66 15 5 2.8 9.7 6.1 14.1 9.7q1.9 1.5 3.6 3.1c1 0.9 2 2.1 3.2 2.9 1.7 1.2 2.8-2.3 3.6-3.4 0.6-0.9 1.5-1.6 2.6-1.8 2.7-0.4 5.1 2.6 6.8 4.3q3.6 3.4 6.7 7.3 3.2 3.9 5.8 8.2c0.9 1.6 1.6 3.4 2.6 4.8 0.5 0.7 1.7 1.1 2.1 0 0.5-1.6 3-0.9 2.5 0.7z"/>
							</g>
						</g>
					</g>
				</g>
				<g id="&lt;Group&gt;">
					<path id="&lt;Path&gt;" class="s4" d="m526.8-288.4q-3 1.4-5.9 2.9-0.5-10.6 0.3-21.1c-2.8 0.1-5.7 0.8-8.3 2 2-14.5 15.6-26.5 30.2-26.7q-1.4-3.5-2.8-7c10.3-0.3 20.6 4.8 26.4 13.3q3.8-3.5 7.6-7.1c1.1 3.9 1.6 7.9 1.6 11.9 5.3 1.4 10.3 4.4 13.9 8.6-3.5-0.8-7.2-0.8-10.7-0.2 5.1 4.1 8.3 10.3 8.7 16.8 0.4 6.5-2.1 13.1-6.7 17.7 0.2-3.9-1.3-7.8-4-10.5 0.4 7.4-4.3 14.4-10.3 18.7-6 4.3-13.3 6.6-20.4 8.7-0.4-6.6-4.3-13-10.1-16.3q-1.6 2.2-3.3 4.5c-3.4-4.6-5.5-10.2-5.9-15.9"/>
				</g>
				<g id="&lt;Group&gt;">
					<path id="&lt;Path&gt;" class="s6" d="m656.9-321.6c0 0-27.1 26.9-26.7 17.7 0.3-9.2 10.8-42.2 10.8-42.2 2.4 3.5 4.5 6.8 5.7 9.7 1.5 3.7 5.4 8.5 10.2 14.8z"/>
				</g>
				<g id="&lt;Group&gt;">
					<path id="&lt;Path&gt;" class="s6" d="m645.1-393c-0.4 3.4-0.7 5.9-0.7 7.2 0 6.6-7.7 5.8-15.7 11.6-2.7 1.9-2.1 5.5 0.1 9.9 0 0-17-12-11.5-17.2 5.5-5.1 15.8-11.8 12.9-17.7-3-5.8-4.7-23.1-4.7-23.1 3.5-6.4 6.7-10.7 8.2-8.8 1.8 2.5 7.1 21.7 11.4 38.1z"/>
				</g>
				<g id="&lt;Group&gt;">
					<path id="&lt;Path&gt;" class="s6" d="m525.1-364.3c0 0-16.7-6.2-25.2-9.8-8.2-3.6-18.1 18.2-18.7 19.4q0.1-1.6 0.2-3.5c0-12.7-1.7-8.6 4.6-19.1 2-3.1 5.4-7.8 9.7-12.9 28.9 9.6 25.1 8 28.7 22.9q0.4 1.5 0.7 3z"/>
				</g>
				<g id="fur ball 1 ">
					<g id="&lt;Group&gt;">
						<path id="&lt;Path&gt;" class="s2" d="m526.2-297.8q-1.5 1-3.1 1.9c-1.4 0.8-3.2-0.1-3.3-1.7q-0.8-8.4-0.9-16.8c0-1.4-1.3-2.5-2.7-2.2q-1.3 0.3-2.6 0.8c-1.6 0.6-3.3-0.9-2.9-2.6 2.8-13.1 14-24.1 27.2-26.5 1.4-0.2 2.2-1.8 1.6-3.1q-0.4-0.8-0.8-1.6c-0.7-1.5 0.4-3.2 2-3.2 9.2 0.1 18.3 4.1 24.5 10.8 0.9 0.9 2.4 0.9 3.2 0q1.7-1.8 3.3-3.6c1.2-1.2 3.4-0.7 3.8 0.9q1 3.6 1.3 7.4c0.1 0.9 0.8 1.7 1.7 1.9 3.1 0.8 6 2 8.6 3.7 1.8 1.1 1.1 3.9-1 4.1q-0.1 0-0.1 0c-1.9 0.1-2.7 2.4-1.4 3.8 3.8 3.9 6.4 9 7.1 14.5 0.6 5.1-0.4 10.3-2.8 14.8-0.9 1.7-3.5 1.7-4.1-0.1q-0.1-0.3-0.2-0.5c-0.8-2-3.8-1.8-4.2 0.3-1.2 5.8-4.9 11.1-9.5 15-5.5 4.5-12.2 7.4-19 9.9-1.2 0.5-2.6-0.2-2.9-1.5-1.4-5.5-4.9-10.3-9.6-13.3-1.1-0.7-2.5-0.4-3.1 0.7q-0.2 0.3-0.4 0.6c-0.9 1.3-2.8 1.4-3.7 0.1-2.9-4.3-4.9-9.1-5.6-14.2"/>
						<g id="&lt;Group&gt;">
							<path id="&lt;Path&gt;" class="s3" d="m527.6-297.8q0.5 3.8 1.9 7.4 0.8 2.1 1.9 4c0.5 0.8 1.1 2.3 1.9 2.8 1.2 0.8 1.8-0.6 2.4-1.3 0.5-0.6 1.3-1.1 2.1-1.2 2-0.2 3.9 1.7 5.3 3 1.6 1.5 3 3.2 4.1 5 1.2 1.9 2 3.9 2.7 6 0.5 1.7 1.4 1.4 2.8 0.9q1.8-0.7 3.5-1.4c4.9-2.1 9.7-4.4 13.8-7.8 3.7-3.1 6.9-7 8.5-11.6 0.6-1.7 0.7-4 2.3-5 1.3-0.8 3-0.6 4 0.4 0.6 0.7 0.7 2 1.6 2.3 1 0.4 1.6-0.5 1.9-1.3 1.2-2.3 2-4.8 2.3-7.4 0.8-5.2-0.3-10.4-2.8-14.9q-1-1.8-2.3-3.4c-0.6-0.8-1.5-1.5-2-2.4-0.9-1.4-0.6-3.2 0.7-4.2 0.8-0.7 3.9-0.8 2.8-2.6-0.5-0.8-2.2-1.4-3.1-1.9q-1.9-0.9-3.9-1.5c-1.9-0.6-3.8-1-4.2-3.3-0.2-1.5-0.3-3-0.6-4.5-0.2-0.9-0.3-2.6-1-3.2-1-1-2 0.2-2.6 0.9-0.9 1-1.7 2.1-2.7 2.9-1.7 1.5-3.6 0.6-4.9-0.8-3.4-3.3-7.4-6-11.9-7.7q-3.3-1.3-6.9-1.8c-1.2-0.2-6.4-1.3-5.6 1.2 0.3 1.1 1.1 2 1.1 3.1 0 0.9-0.3 1.7-0.9 2.3-0.8 0.7-1.7 0.9-2.7 1.1q-1.4 0.3-2.8 0.7c-4.1 1.4-8 3.6-11.3 6.4-3.2 2.7-6 6-8 9.7q-1.6 2.9-2.6 6c-0.3 0.9-0.9 2.3-0.7 3.2 0.3 1.6 2 0.8 3 0.5 1.9-0.5 3.9-0.6 4.9 1.4 0.5 1.2 0.3 2.6 0.3 3.9q0.1 1.9 0.2 3.9 0.1 4.5 0.5 8.9c0.1 1 0.1 2.7 1.7 2.4 0.5-0.1 1.2-0.6 1.7-0.9q0.8-0.5 1.7-1c1.2-0.7 2.2 1.1 1 1.7-1.7 1-3.9 3-6.1 1.9-2.3-1.1-2-4-2.1-6.1q-0.4-4.8-0.5-9.6-0.1-1.3-0.1-2.7c0-0.7 0.1-1.4-0.4-1.9-1-0.9-2.9 0.3-3.9 0.5-1.9 0.4-3.8-1-3.9-2.9-0.1-2.1 1-4.5 1.7-6.4q1.3-3.2 3.2-6.1c2.5-3.8 5.7-7.1 9.4-9.8 3.8-2.6 8-4.6 12.5-5.6 1.4-0.3 2.7-0.7 1.9-2.3-0.4-0.9-1-1.8-0.9-2.9 0.2-2.2 2.1-3 4-3 5.1 0.2 10.1 1.5 14.7 3.8q3.3 1.7 6.2 4.1 1.6 1.2 3 2.6c0.4 0.5 0.9 1.1 1.6 1 0.6-0.1 1-0.7 1.4-1.1 1.4-1.6 3-4.2 5.5-3.8 2.5 0.4 2.8 2.9 3.2 5 0.3 1.5 0.5 2.9 0.7 4.4 0.2 1.6 1.4 1.6 2.7 2 2.5 0.8 5.3 1.8 7.4 3.4 1.4 1.1 1.6 3 0.6 4.5q-0.7 1-2.1 1.2c-0.8 0.2-1.7 0.6-1.4 1.6 0.1 0.6 0.8 1 1.2 1.5q0.6 0.7 1.2 1.4 1.1 1.5 2 3.1c1.3 2.3 2.3 4.7 2.9 7.3 1.1 5.3 0.5 10.9-1.6 15.9-0.8 1.8-1.7 3.8-4.1 3.7-0.9-0.1-1.7-0.5-2.3-1.2-0.5-0.7-0.5-1.9-1.5-2.1-1.1-0.2-1.4 0.7-1.6 1.6q-0.4 1.8-1.2 3.5c-0.9 2.3-2.2 4.4-3.7 6.4-3.3 4.2-7.7 7.4-12.4 10-2.4 1.3-5 2.4-7.6 3.5-1.3 0.5-2.7 1.2-4.1 1.6-0.9 0.2-1.8 0.2-2.6-0.2-0.9-0.6-1.4-1.4-1.7-2.4-0.3-1.2-0.7-2.4-1.3-3.5-1.1-2.3-2.6-4.4-4.4-6.2-0.9-0.9-1.9-1.8-3-2.5-1.4-0.8-1.8 0-2.6 1-1.2 1.5-3.3 1.8-4.7 0.5-1-0.8-1.6-2.2-2.2-3.2q-1-1.8-1.8-3.7-1.6-3.9-2.3-8.1c-0.2-1.3 1.8-1.8 2-0.6z"/>
						</g>
					</g>
				</g>
			</g>
		</g>
	</g>
</svg>